<svg width="483" height="483" viewBox="0 0 483 483" fill="none" xmlns="http://www.w3.org/2000/svg">
	<path fill-rule="evenodd" clip-rule="evenodd" d="M348.374 127.272C385.755 162.764 396.197 215.694 393.452 267.155C390.822 316.465 376.132 368.912 334.104 394.827C295.008 418.933 248.118 395.351 203.535 384.259C158.415 373.033 104.467 372.549 81.6748 332.022C57.4628 288.971 74.6389 236.705 95.3379 191.876C117.491 143.896 146.31 94.2018 197.52 81.1274C251.114 67.4441 308.25 89.1776 348.374 127.272Z" fill="#64FCD9"/>
	<g clip-path="url(#clip0)">
	<path d="M264.57 108.955C266.454 108.544 268.383 109.271 270.157 110.027C304.106 124.492 330.596 155.393 339.703 191.155C348.81 226.917 340.327 266.724 317.431 295.665C294.535 324.607 257.748 342.023 220.851 341.39C220.101 345.675 219.351 349.961 218.601 354.246C218.599 350.614 218.541 346.77 216.636 343.678C214.73 340.586 210.265 338.775 207.347 340.937C203.359 345.699 206.441 354.329 212.543 355.488C211.349 358.287 206.747 357.415 205.2 354.794C203.653 352.174 204.004 348.911 203.765 345.877C203.527 342.843 202.127 339.355 199.143 338.76C190.283 336.993 181.594 334.376 173.233 330.956C167.821 328.742 161.584 324.395 162.852 318.687C163.789 314.472 168.777 312.214 173.058 312.781C177.339 313.348 181.032 315.959 184.531 318.491C186.356 312.184 188.181 305.877 190.006 299.57C184.262 299.836 182.649 291.42 177.809 288.315C155.665 274.108 140.903 248.997 139.259 222.739C137.615 196.48 149.13 169.724 169.33 152.867C189.53 136.009 217.914 129.467 243.455 135.783C246.485 132.055 252.15 130.764 256.496 132.811C260.56 130.737 260.353 124.986 259.842 120.452C259.332 115.918 260.113 109.926 264.57 108.955ZM192.902 320.503C191.23 318.65 192.871 319.745 192.871 319.745L192.902 320.711V321.153C192.902 321.153 188.847 319.584 186.899 318.948C220.208 330.2 258.971 323.654 286.738 302.089C314.506 280.524 330.443 244.588 327.787 209.53C325.13 174.473 303.961 141.348 273.261 124.213C272.529 123.804 271.709 123.391 270.889 123.569C269.837 123.797 269.239 124.882 268.777 125.855C267.236 129.096 265.695 132.338 264.154 135.579C267.784 137.711 269.723 142.367 268.68 146.445C289.455 159.612 303.922 182.297 307.098 206.687C310.275 231.077 302.101 256.71 285.391 274.759C268.682 292.808 243.753 302.93 219.191 301.64C213.435 301.337 207.235 300.54 202.274 303.477C196.539 306.872 194.479 314.027 192.902 320.503Z" fill="white"/>
	<path d="M184.496 169.216C184.029 169.222 183.827 169.801 183.752 170.262C183.467 172.017 183.182 173.773 182.897 175.528C185.091 175.483 187.564 175.313 188.992 173.646C187.026 173.315 185.556 171.191 185.94 169.235C186.639 170.314 187.584 171.234 188.682 171.904C189.229 172.237 189.861 172.564 190.075 173.167C190.429 174.166 189.435 175.089 188.567 175.697C187.7 176.305 186.729 177.275 187.139 178.251C186.337 177.326 185.162 176.734 183.941 176.639C183.243 176.584 182.47 176.665 181.911 176.242C181.01 175.561 181.318 174.143 181.816 173.128C182.313 172.114 182.919 170.912 182.361 169.93C181.943 169.195 180.964 168.832 180.744 168.016C180.423 166.825 181.897 165.995 183.091 165.69C183.923 165.478 184.798 165.29 185.63 165.496C186.463 165.703 187.23 166.425 187.199 167.283C186.803 168.393 185.675 169.2 184.496 169.216ZM186.445 166.943C185.252 166.268 183.661 166.376 182.57 167.205C182.212 167.477 181.885 167.954 182.103 168.348C183.657 168.447 185.243 167.934 186.445 166.943Z" fill="black"/>
	<path d="M270.7 231.876C270.175 231.669 269.709 231.314 269.369 230.864C270.636 230.31 271.675 229.254 272.208 227.977C272.546 227.166 273.759 227.151 274.487 227.644C275.216 228.137 275.67 228.942 276.333 229.521C276.996 230.099 278.101 230.389 278.708 229.753C279.417 229.011 280.792 229.609 281.152 230.569C281.513 231.529 281.196 232.597 280.878 233.572C280.694 234.139 280.493 234.732 280.052 235.133C279.611 235.534 278.85 235.649 278.442 235.214C276.842 233.508 273.648 233.785 272.365 235.741C271.083 234.968 270.381 233.339 270.7 231.876ZM273.015 229.244C271.869 230.402 271.481 232.247 272.062 233.768C272.196 234.118 272.645 234.491 272.877 234.196C273.941 232.842 275.881 232.249 277.52 232.778C277.83 232.877 278.106 232.468 278.018 232.154C277.929 231.84 277.636 231.636 277.363 231.459C276.191 230.698 275.02 229.937 273.849 229.176C273.713 229.087 273.563 228.995 273.401 229.011C273.248 229.026 273.123 229.135 273.015 229.244ZM279.321 234.763C279.799 233.665 280.123 232.5 280.281 231.313C280.316 231.05 280.186 230.656 279.941 230.757C278.492 231.428 278.143 233.686 279.321 234.763Z" fill="black"/>
	<path d="M234.224 232.537C232.048 230.864 229.291 229.523 228.384 226.932C226.841 222.527 221.946 220.225 219.523 216.235C217.477 212.867 217.416 208.648 218.026 204.755C219.557 195 225.588 185.514 234.824 182.022C239.231 180.356 244.041 180.124 248.753 180.172C252.807 180.214 256.999 180.485 260.611 182.327C264.223 184.17 267.124 187.962 266.743 191.999C266.59 193.624 265.93 195.182 265.9 196.813C265.817 201.284 270.196 204.365 274.068 206.601C277.802 208.757 281.536 210.913 285.27 213.069C287.197 214.182 287.46 216.807 287.501 219.031C287.611 225.115 287.722 231.199 287.833 237.283C287.855 238.499 287.875 239.734 287.561 240.909C287.222 242.177 286.512 243.309 285.812 244.419C278.833 255.483 271.26 267.094 259.483 272.79C256.905 274.038 254.187 274.965 251.476 275.889C248.944 276.752 246.411 277.615 243.878 278.479C242.007 279.117 240.078 279.763 238.104 279.651C236.13 279.539 234.076 278.483 233.383 276.632C232.98 275.557 233.077 274.365 233.245 273.229C233.818 269.364 235.164 265.615 237.18 262.267C239.993 257.597 241.684 252.15 241.357 246.707C241.029 241.264 238.547 235.861 234.224 232.537ZM225.554 219.639C230.798 224.516 235.457 230.021 239.401 235.999C240.759 238.058 242.045 240.2 242.77 242.558C244.174 247.13 243.339 252.118 241.716 256.616C240.093 261.115 237.713 265.303 235.911 269.733C234.913 272.186 234.295 275.47 236.39 277.09C238.114 278.423 240.589 277.731 242.635 276.983C245.705 275.861 248.775 274.739 251.844 273.617C254.392 272.686 256.946 271.752 259.365 270.525C270.417 264.916 277.494 253.89 284.039 243.365C284.632 242.412 285.231 241.444 285.539 240.365C285.859 239.242 285.848 238.056 285.834 236.889C285.773 231.742 285.713 226.596 285.652 221.449C285.63 219.638 285.592 217.754 284.773 216.139C283.312 213.259 279.906 212.095 276.975 210.738C272.579 208.7 268.646 205.67 265.554 201.939C264.757 200.978 263.994 199.925 263.749 198.7C263.313 196.523 264.586 194.383 264.775 192.171C265.085 188.548 262.351 185.212 259.054 183.678C255.757 182.145 251.999 182.033 248.363 182.004C244.916 181.976 241.425 182.004 238.09 182.875C228.157 185.468 221.36 195.371 219.901 205.533C219.488 208.415 219.457 211.482 220.746 214.094C221.835 216.301 223.752 217.963 225.554 219.639Z" fill="black"/>
	<path d="M177.734 373.285C181.608 375.641 186.211 376.423 190.7 377.065C197.84 378.087 205.014 378.871 212.206 379.416C221.472 380.118 231.335 380.293 239.393 375.667C239.989 375.326 240.597 374.933 240.922 374.328C241.911 372.492 239.654 370.504 237.601 370.137C235.548 369.77 233.175 369.98 231.675 368.531C234.697 367.03 238.499 367.237 241.341 369.056C244.182 370.876 245.961 374.243 245.862 377.615C245.781 380.38 244.538 383.042 244.667 385.805C244.824 389.176 241.388 391.515 238.252 392.76C228.284 396.718 217.257 396.82 206.533 396.663C197.031 396.523 187.162 396.132 178.719 391.772C176.596 390.676 174.521 389.263 173.347 387.182C172.293 385.313 172.073 383.105 171.874 380.969C171.474 376.673 171.222 371.87 173.989 368.56C176.627 365.404 181.134 364.687 185.236 364.391C187.218 364.247 187.914 361.617 187.552 359.664C187.191 357.711 186.328 355.63 187.179 353.835C188.876 350.251 194.772 352.013 197.802 349.455C198.808 348.606 200.424 350.117 200.034 351.374C199.643 352.631 198.166 353.219 196.849 353.244C195.533 353.269 194.223 352.906 192.912 353.026C191.601 353.146 190.187 353.984 190.076 355.296C202.158 360.144 215.8 361.01 228.398 357.729C226.229 355.075 222.756 353.541 219.334 353.727C219.389 352.882 220.334 352.404 221.166 352.25C224.938 351.553 228.82 354.192 230.265 357.744C231.709 361.297 231.032 365.451 229.231 368.837C227.594 368.327 227.723 366.012 227.988 364.318C228.252 362.623 227.555 360.176 225.871 360.502C214.364 362.731 202.272 361.866 191.199 358.02C190.354 357.726 189.817 358.915 189.714 359.803C189.328 363.126 189.131 366.995 191.587 369.266C192.792 370.38 194.432 370.877 196.024 371.278C204.677 373.463 213.777 373.857 222.586 372.43C223.819 372.23 225.39 372.146 225.992 373.24C219.318 376.266 211.626 375.578 204.336 374.829C200.89 374.475 197.376 374.103 194.216 372.684C191.135 371.299 188.528 368.975 185.378 367.756C182.228 366.537 178.008 366.854 176.29 369.762C176.101 370.083 175.946 370.434 175.919 370.806C175.842 371.883 176.811 372.724 177.734 373.285ZM242.594 386.584C243.997 383.448 242.705 379.849 242.29 376.438C232.719 382.975 220.132 382.41 208.604 381.201C201.921 380.5 195.251 379.667 188.601 378.704C184.288 378.079 179.758 377.302 176.387 374.541C175.481 373.8 174.475 375.353 174.325 376.514C173.89 379.888 173.511 383.558 175.264 386.474C177.185 389.672 181.087 391.002 184.709 391.895C200.65 395.826 217.522 395.926 233.508 392.185C237.104 391.343 241.086 389.956 242.594 386.584Z" fill="black"/>
	<path d="M262.294 108.311C264.178 107.9 266.106 108.627 267.88 109.383C301.83 123.848 328.32 154.749 337.427 190.511C346.534 226.272 338.051 266.08 315.155 295.021C292.259 323.963 255.472 341.379 218.574 340.746C217.824 345.031 217.074 349.317 216.324 353.602C216.323 349.97 216.265 346.126 214.36 343.034C212.454 339.942 207.989 338.131 205.07 340.293C201.083 345.055 204.164 353.685 210.267 354.844C209.073 357.643 204.471 356.771 202.924 354.15C201.376 351.53 201.728 348.267 201.489 345.233C201.251 342.199 199.851 338.711 196.866 338.116C188.007 336.349 179.318 333.731 170.956 330.311C165.545 328.098 159.308 323.751 160.576 318.043C161.513 313.828 166.501 311.57 170.782 312.137C175.063 312.704 178.756 315.315 182.255 317.846C184.08 311.54 185.905 305.233 187.73 298.926C181.986 299.192 180.373 290.776 175.533 287.671C153.389 273.464 138.627 248.353 136.983 222.095C135.339 195.836 146.854 169.08 167.054 152.223C187.253 135.365 215.638 128.823 241.178 135.139C244.209 131.411 249.874 130.12 254.22 132.167C258.284 130.093 258.076 124.342 257.566 119.808C257.055 115.274 257.837 109.282 262.294 108.311V108.311ZM297.892 245.675C307.848 219.513 303.168 188.304 285.974 166.214C284.728 164.613 283.321 162.987 281.398 162.344C277.053 160.892 272.707 159.44 268.362 157.988C268.834 159.82 267.368 161.701 265.599 162.371C263.829 163.041 261.863 162.814 259.986 162.575C256.642 162.149 253.191 161.68 250.303 159.941C247.416 158.203 245.227 154.836 245.926 151.539C246.484 148.905 243.256 147.216 240.662 146.493C233.89 144.606 227.119 142.718 220.347 140.83C218.871 140.419 217.291 139.941 216.348 138.733C215.405 137.525 215.591 135.358 217.043 134.867C205.694 135.171 194.424 138.085 184.351 143.322C192.381 147.484 200.564 151.758 206.85 158.261C211.781 163.361 215.487 170.197 214.889 177.266C214.371 183.39 210.637 188.929 205.772 192.686C200.908 196.443 194.995 198.603 189.034 200.102C180.239 202.312 169.585 202.66 163.534 195.906C161.773 193.941 158.627 194.45 156.076 195.121C151.771 196.253 147.466 197.385 143.161 198.517C142.159 198.78 140.945 199.292 140.911 200.328C140.808 203.47 143.136 206.523 146.193 207.255C149.249 207.987 152.708 206.32 154.039 203.472C154.841 201.756 157.257 201.489 159.028 202.16C160.799 202.832 162.264 204.149 164.025 204.845C166.817 205.947 170.094 205.394 172.794 206.705C177.297 208.891 178.065 215.025 177.206 219.956C175.611 229.11 170.421 237.588 162.994 243.171C158.121 246.835 158.967 254.428 161.419 260.01C163.872 265.592 167.519 271.205 166.668 277.242C163.323 270.249 160.491 263.011 158.202 255.605C156.939 251.519 156.216 246.216 159.698 243.735C167.098 238.463 172.589 230.569 174.957 221.797C176.376 216.539 175.67 209.359 170.458 207.779C168.438 207.166 166.204 207.621 164.198 206.965C162.518 206.415 161.172 205.143 159.559 204.42C157.946 203.697 155.675 203.759 154.824 205.308C151.924 210.586 143.022 210.802 139.869 205.671C136.208 231.813 146.11 259.486 165.526 277.37C184.941 295.255 213.332 302.857 239.086 297.066C264.84 291.275 287.245 272.252 297.136 247.778C294.387 246.553 292.831 243.516 292.429 240.534C292.027 237.552 292.563 234.535 292.86 231.541C293.458 225.519 293.083 219.402 291.754 213.498C291.396 211.911 290.695 210.062 289.102 209.733C284.318 208.746 279.779 206.596 275.984 203.52C273.102 201.184 270.682 196.554 273.487 194.125C274.794 192.994 272.939 191.13 272.264 189.539C270.838 186.18 275.204 183.421 278.695 182.356C282.788 181.107 286.881 179.859 290.974 178.61C291.415 178.475 291.883 178.339 292.332 178.449C293.637 178.767 293.545 180.874 292.447 181.647C291.35 182.421 289.885 182.296 288.542 182.264C283.202 182.137 277.839 184.091 273.833 187.624C275.615 189.595 276.073 192.657 274.947 195.063C273.591 197.961 275.516 201.476 278.177 203.252C280.837 205.028 284.084 205.634 287.07 206.781C290.056 207.928 293.066 209.966 293.789 213.082C295.254 219.396 295.572 225.973 294.725 232.398C294.086 237.248 293.487 243.55 297.892 245.675ZM190.626 319.859C188.953 318.006 189.367 315.068 190.409 312.8C191.452 310.532 193.028 308.455 193.469 305.999C193.91 303.542 192.579 300.477 190.09 300.286C188.268 306.292 186.446 312.298 184.623 318.304C217.932 329.556 256.695 323.01 284.462 301.445C312.23 279.88 328.167 243.944 325.51 208.886C322.854 173.829 301.685 140.704 270.985 123.569C270.253 123.16 269.432 122.747 268.613 122.925C267.56 123.153 266.963 124.238 266.5 125.211C264.959 128.452 263.418 131.693 261.877 134.935C265.508 137.067 267.447 141.723 266.404 145.801C287.179 158.968 301.645 181.653 304.822 206.043C307.998 230.433 299.824 256.066 283.115 274.115C266.405 292.164 241.477 302.286 216.915 300.996C211.159 300.693 204.958 299.896 199.998 302.833C194.263 306.228 192.203 313.383 190.626 319.859H190.626ZM269.049 112.224C267.155 111.379 265.094 110.567 263.06 110.971C261.025 111.374 259.218 113.53 259.959 115.467C295.625 130.028 322.249 164.721 327.088 202.94C331.926 241.158 314.786 281.392 283.874 304.381C252.962 327.37 209.498 332.207 174.288 316.575C170.868 315.057 166.2 313.637 163.944 316.622C162.555 318.459 163.02 321.205 164.421 323.034C165.821 324.863 167.943 325.973 170.023 326.963C207.583 344.863 254.637 340.944 288.719 317.078C322.8 293.211 342.573 250.334 338.596 208.917C334.62 167.5 307.05 129.169 269.049 112.224ZM142.395 196.857C146.777 195.66 151.16 194.463 155.543 193.267C158.565 192.441 162.309 191.809 164.396 194.145C167.767 197.919 172.988 199.645 178.047 199.741C183.106 199.837 188.074 198.474 192.886 196.911C199.446 194.78 206.433 191.774 209.573 185.633C211.418 182.024 213.313 178.19 213.063 174.144C212.832 170.415 210.808 167.068 208.841 163.891C207.188 161.222 205.493 158.504 203.078 156.498C198.958 153.075 193.137 152.055 189.372 148.245C187.196 146.042 183.738 145.505 180.719 146.191C177.699 146.876 175.03 148.608 172.539 150.446C158.254 160.986 147.487 176.212 142.312 193.192C141.942 194.408 141.633 195.84 142.395 196.857ZM266.796 157.238C268.195 155.227 271.353 155.927 273.437 157.215C275.521 158.502 277.766 160.245 280.139 159.637C267.179 146.492 249.818 137.763 231.538 135.2C226.805 134.537 221.379 134.495 217.978 137.851C226.49 140.404 235.003 142.958 243.515 145.511C244.635 145.847 245.817 146.222 246.584 147.104C247.932 148.656 247.451 151.013 247.825 153.034C248.365 155.947 250.812 158.215 253.547 159.354C256.282 160.493 259.302 160.696 262.259 160.884C263.287 160.95 264.432 160.978 265.208 160.301C266.083 159.538 266.133 158.19 266.796 157.238ZM264.211 144.336C265.006 142.597 264.29 140.461 262.969 139.078C261.648 137.695 259.836 136.907 258.06 136.195C254.947 134.947 251.718 133.808 248.365 133.718C247.525 133.695 246.6 133.773 245.997 134.359C245.394 134.944 245.45 136.19 246.254 136.433C252.529 138.331 258.573 140.991 264.211 144.336ZM203.045 299.002C196.943 297.864 191.004 295.857 185.462 293.061C185.004 292.83 184.516 292.586 184.005 292.635C183.494 292.683 182.989 293.161 183.118 293.658C183.206 293.995 183.532 294.204 183.832 294.38C187.018 296.253 190.23 298.139 193.726 299.338C197.221 300.538 201.062 301.019 204.622 300.027C204.503 299.368 203.703 299.124 203.045 299.002ZM264.657 120.085C264.178 119.384 263.055 119.434 262.391 119.964C261.727 120.494 261.407 121.334 261.117 122.132C259.902 125.47 258.687 128.808 257.472 132.146C257.361 132.453 257.247 132.773 257.284 133.097C257.388 134.039 258.726 134.38 259.537 133.89C260.348 133.399 260.733 132.446 261.065 131.559C262.233 128.446 263.4 125.333 264.567 122.22C264.827 121.525 265.075 120.698 264.657 120.085V120.085Z" fill="black"/>
	</g>
	<defs>
	<clipPath id="clip0">
	<rect width="288.512" height="288.512" fill="white" transform="translate(94.668 108.192)"/>
	</clipPath>
	</defs>
	</svg>
