<svg width="647.34248046875px" height="214.4375px" xmlns="http://www.w3.org/2000/svg" viewBox="-73.67124023437498 -32.21875 647.34248046875 214.4375" style="background: rgb(58, 49, 46);" preserveAspectRatio="xMidYMid"><defs><linearGradient id="editing-shiny-gradient" x1="0.9698463103929542" x2="0.03015368960704584" y1="0.32898992833716556" y2="0.6710100716628344" gradientUnits="objectBoundingBox"><stop offset="0.0" stop-color="#782f19"></stop><stop offset="0.5" stop-color="#a74422"></stop><stop offset="1.0" stop-color="#c86833"></stop></linearGradient><linearGradient id="editing-shiny-gradient2" x1="0" x2="0" y1="0" y2="1"><stop offset="0.2" stop-color="#fff" stop-opacity="0.8"></stop><stop offset="0.8" stop-color="#fff" stop-opacity="0"></stop></linearGradient><filter id="editing-shiny2" x="-100%" y="-100%" width="300%" height="300%"><feMorphology operator="erode" radius="2"></feMorphology></filter><filter id="editing-shiny" x="-100%" y="-100%" width="300%" height="300%"><feFlood flood-color="#fff" result="flood"></feFlood><feConvolveMatrix in="SourceGraphic" result="conv" order="8,8" divisor="1" kernelMatrix="0 0 0 0 0 0 0 0 0 0 0 1 1 0 0 0 0 0 0 1 1 0 0 0 0 0 1 0 0 1 0 0 0 0 1 0 0 1 0 0 0 1 0 0 0 0 1 0 0 1 1 0 0 1 1 0 0 0 0 1 1 0 0 0 "></feConvolveMatrix><feOffset dx="0" dy="4" in="conv" result="offset"></feOffset><feComposite operator="in" in="flood" in2="offset" result="comp"></feComposite><feGaussianBlur in="offset" stdDeviation="3" result="shadow"></feGaussianBlur><feColorMatrix in="shadow" type="matrix" values="0.7 0 0 0 0  0 0.7 0 0 0  0 0 0.7 0 0  0 0 0 0.3 0" result="dark-shadow"></feColorMatrix><feOffset dx="0" dy="4" in="dark-shadow" result="offset-shadow"></feOffset><feOffset dx="0" dy="2" in="conv" result="offset-2"></feOffset><feComposite operator="out" in="offset" in2="offset-2" result="edge-diff"></feComposite><feGaussianBlur in="edge-diff" stdDeviation="1" result="edge-blur"></feGaussianBlur><feColorMatrix in="edge-blur" result="edge-shadow" type="matrix" values="0 0 0 0 0  0 0 0 0 0  0 0 0 0 0  0 0 0 0.5 0"></feColorMatrix><feComposite operator="in" in="edge-shadow" in2="offset" result="edge-shadow-in"></feComposite><feOffset dx="0" dy="1" in="edge-shadow-in" result="edge-shadow-final"></feOffset><feMerge result="out"><feMergeNode in="offset-shadow"></feMergeNode><feMergeNode in="comp"></feMergeNode><feMergeNode in="edge-shadow-final"></feMergeNode><feMergeNode in="SourceGraphic"></feMergeNode></feMerge></filter></defs><g filter="url(#editing-shiny)"><g transform="translate(16.43000602722168, 110.95999908447266)"><path d="M59.85 4.20L59.85 4.20Q50.71-9.97 42.05-22.84L42.05-22.84L42.05-22.84Q33.39-35.70 27.82-43.63L27.82-43.63L27.82-43.63Q22.26-51.55 20.79-53.66L20.79-53.66L20.27-53.66L19.74-8.82L19.74-8.82Q19.74-6.51 20.47-5.56L20.47-5.56L20.47-5.56Q21.21-4.62 22.99-4.62L22.99-4.62L28.35-4.72L28.56-4.30L27.61 0.42L27.61 0.42Q26.46 0.32 22.89 0.16L22.89 0.16L22.89 0.16Q19.32 0 16.48 0L16.48 0L16.48 0Q13.86 0 10.76 0.37L10.76 0.37L10.76 0.37Q7.67 0.73 6.72 0.84L6.72 0.84L7.25-3.99L7.25-3.99Q10.50-4.41 12.07-5.93L12.07-5.93L12.07-5.93Q13.65-7.46 13.75-10.61L13.75-10.61L15.12-56.49L15.12-56.49Q15.12-59.74 13.18-61.11L13.18-61.11L13.18-61.11Q11.23-62.47 5.98-63L5.98-63L5.67-63.52L6.51-67.41L6.51-67.41Q7.46-67.30 10.61-67.09L10.61-67.09L10.61-67.09Q13.75-66.88 15.54-66.88L15.54-66.88L15.54-66.88Q17.75-66.88 19.84-67.04L19.84-67.04L19.84-67.04Q21.95-67.20 22.57-67.30L22.57-67.30L22.57-67.30Q30.34-55.23 38.17-43.68L38.17-43.68L38.17-43.68Q45.99-32.13 51.24-24.68L51.24-24.68L51.24-24.68Q56.49-17.22 57.85-15.22L57.85-15.22L58.38-15.22L58.38-57.75L58.38-57.75Q58.38-62.27 54.91-62.27L54.91-62.27L50.92-62.16L50.71-62.58L51.66-67.30L51.66-67.30Q52.71-67.20 55.65-67.04L55.65-67.04L55.65-67.04Q58.59-66.88 61.63-66.88L61.63-66.88L61.63-66.88Q64.36-66.88 67.67-67.25L67.67-67.25L67.67-67.25Q70.98-67.62 72.03-67.72L72.03-67.72L71.50-62.89L71.50-62.89Q67.83-62.37 66.15-60.85L66.15-60.85L66.15-60.85Q64.47-59.32 64.36-56.28L64.36-56.28L62.89 2.73L59.85 4.20ZM81.16 0.84L81.69-3.57L81.69-3.57Q85.57-3.99 86.94-5.46L86.94-5.46L86.94-5.46Q88.30-6.93 88.30-10.50L88.30-10.50L88.41-43.78L88.41-43.78Q88.41-46.41 87.78-47.30L87.78-47.30L87.78-47.30Q87.15-48.20 85.26-48.20L85.26-48.20L82.42-48.09L82.21-48.51L82.84-52.50L82.84-52.50Q84.10-52.50 87.78-52.39L87.78-52.39L87.78-52.39Q91.45-52.29 95.76-52.29L95.76-52.29L95.76-52.29Q113.29-52.29 121.69-53.23L121.69-53.23L122.01-52.71L122.01-52.71Q121.80-51.55 121.06-47.46L121.06-47.46L121.06-47.46Q120.33-43.36 120.01-38.64L120.01-38.64L114.97-38.22L114.97-38.22Q114.97-38.64 115.08-39.64L115.08-39.64L115.08-39.64Q115.18-40.63 115.18-41.68L115.18-41.68L115.18-41.68Q115.18-44.41 114.40-45.52L114.40-45.52L114.40-45.52Q113.61-46.62 111.14-46.99L111.14-46.99L111.14-46.99Q108.67-47.35 102.58-47.35L102.58-47.35L102.58-47.35Q99.75-47.35 98.70-47.20L98.70-47.20L98.70-47.20Q97.65-47.04 97.33-46.46L97.33-46.46L97.33-46.46Q97.02-45.88 96.91-44.31L96.91-44.31L96.28-29.40L104.89-29.29L104.89-29.29Q106.78-29.29 110.46-29.66L110.46-29.66L110.46-29.66Q114.13-30.03 115.29-30.13L115.29-30.13L115.71-29.61L114.45-24.15L114.45-24.15Q113.29-24.15 109.88-24.25L109.88-24.25L109.88-24.25Q106.47-24.36 102.69-24.36L102.69-24.36L102.69-24.36Q99.75-24.36 96.07-23.84L96.07-23.84L96.07-23.84Q95.76-15.85 95.76-9.45L95.76-9.45L95.76-9.45Q95.76-7.04 96.13-6.09L96.13-6.09L96.13-6.09Q96.49-5.14 97.81-4.83L97.81-4.83L97.81-4.83Q99.12-4.51 102.16-4.51L102.16-4.51L102.16-4.51Q108.99-4.51 111.93-5.14L111.93-5.14L111.93-5.14Q114.87-5.77 116.08-7.72L116.08-7.72L116.08-7.72Q117.28-9.66 118.02-14.38L118.02-14.38L122.64-14.80L123.06-14.28L123.06-14.28Q122.74-13.13 121.96-8.87L121.96-8.87L121.96-8.87Q121.17-4.62 120.75 0L120.75 0L120.12 0.53L120.12 0.53Q117.28 0.42 108.36 0.21L108.36 0.21L108.36 0.21Q99.43 0 93.87 0L93.87 0L93.87 0Q89.56 0 85.89 0.37L85.89 0.37L85.89 0.37Q82.21 0.73 81.16 0.84L81.16 0.84ZM150.78 1.36L150.78 1.36Q149.52-2.94 145.27-17.06L145.27-17.06L145.27-17.06Q141.01-31.18 136.92-43.36L136.92-43.36L136.92-43.36Q136.08-45.78 134.35-46.93L134.35-46.93L134.35-46.93Q132.61-48.09 129.57-48.20L129.57-48.20L129.57-48.20Q129.57-48.30 129.36-48.51L129.36-48.51L129.99-52.50L129.99-52.50Q131.14-52.50 134.08-52.39L134.08-52.39L134.08-52.39Q137.02-52.29 139.86-52.29L139.86-52.29L139.86-52.29Q143.74-52.29 147.68-52.66L147.68-52.66L147.68-52.66Q151.62-53.02 152.77-53.13L152.77-53.13L153.09-52.50L152.67-48.72L152.67-48.72Q148.26-48.41 146.89-47.77L146.89-47.77L146.89-47.77Q145.53-47.14 145.53-45.46L145.53-45.46L145.53-45.46Q145.53-43.47 149.68-28.77L149.68-28.77L149.68-28.77Q153.82-14.07 155.40-8.82L155.40-8.82L156.03-8.82L156.03-8.82Q158.65-15.22 163.06-27.40L163.06-27.40L163.06-27.40Q164.74-32.13 167.58-39.69L167.58-39.69L167.58-39.69Q167.58-39.69 166.21-43.78L166.21-43.78L166.21-43.78Q165.48-46.09 163.75-47.04L163.75-47.04L163.75-47.04Q162.01-47.98 158.76-48.20L158.76-48.20L158.55-48.51L159.18-52.50L159.18-52.50Q160.33-52.50 163.43-52.39L163.43-52.39L163.43-52.39Q166.53-52.29 169.47-52.29L169.47-52.29L169.47-52.29Q172.83-52.29 176.92-52.66L176.92-52.66L176.92-52.66Q181.02-53.02 182.28-53.13L182.28-53.13L182.59-52.50L182.28-48.72L182.28-48.72Q177.87-48.41 176.45-47.77L176.45-47.77L176.45-47.77Q175.03-47.14 175.03-45.46L175.03-45.46L175.03-45.46Q175.03-43.68 179.18-28.93L179.18-28.93L179.18-28.93Q183.33-14.17 184.90-8.82L184.90-8.82L185.64-8.82L185.64-8.82Q189.00-17.01 193.83-30.50L193.83-30.50L193.83-30.50Q198.66-43.99 198.66-45.67L198.66-45.67L198.66-45.67Q198.66-47.14 197.45-47.77L197.45-47.77L197.45-47.77Q196.24-48.41 193.20-48.41L193.20-48.41L189.21-48.41L189.00-48.82L189.63-52.81L189.63-52.81Q190.78-52.71 194.51-52.50L194.51-52.50L194.51-52.50Q198.24-52.29 201.60-52.29L201.60-52.29L201.60-52.29Q204.75-52.29 207.43-52.39L207.43-52.39L207.43-52.39Q210.10-52.50 210.94-52.50L210.94-52.50L210.31-48.20L210.31-48.20Q207.90-47.98 206.90-47.25L206.90-47.25L206.90-47.25Q205.90-46.52 205.06-44.10L205.06-44.10L187.74-0.42L180.28 1.36L180.28 1.36Q180.07 0.10 176.98-10.29L176.98-10.29L176.98-10.29Q173.88-20.68 170.31-31.61L170.31-31.61L169.78-31.61L158.34-0.42L150.78 1.36ZM248.01 1.26L248.64-3.57L248.64-3.57Q252.42-4.30 254.10-5.46L254.10-5.46L254.10-5.46Q255.78-6.61 256.30-8.61L256.30-8.61L256.30-8.61Q256.83-10.61 256.83-14.91L256.83-14.91L256.83-19.53L256.83-19.53Q256.83-22.79 256.20-25.25L256.20-25.25L256.20-25.25Q255.57-27.72 253.78-31.39L253.78-31.39L244.33-50.61L244.33-50.61Q241.60-56.17 240.45-58.12L240.45-58.12L240.45-58.12Q239.29-60.06 237.19-61.21L237.19-61.21L237.19-61.21Q235.09-62.37 231.10-62.68L231.10-62.68L230.89-63.10L231.52-67.20L231.52-67.20Q232.68-67.09 235.93-66.99L235.93-66.99L235.93-66.99Q239.19-66.88 243.07-66.88L243.07-66.88L243.07-66.88Q246.75-66.88 251.63-67.25L251.63-67.25L251.63-67.25Q256.51-67.62 257.98-67.72L257.98-67.72L258.30-66.99L257.98-63.31L257.98-63.31Q253.26-62.89 251.63-62.11L251.63-62.11L251.63-62.11Q250.00-61.32 250.00-59.53L250.00-59.53L250.00-59.53Q250.00-58.17 252.63-52.08L252.63-52.08L252.63-52.08Q255.25-45.99 258.04-40.11L258.04-40.11L258.04-40.11Q260.82-34.23 261.76-32.45L261.76-32.45L262.29-32.45L274.26-54.70L274.26-54.70Q275.94-57.75 275.94-59.95L275.94-59.95L275.94-59.95Q275.94-62.68 269.32-63.10L269.32-63.10L269.11-63.52L269.74-67.62L269.74-67.62Q271.00-67.52 274.99-67.20L274.99-67.20L274.99-67.20Q278.98-66.88 281.40-66.88L281.40-66.88L281.40-66.88Q283.92-66.88 287.02-67.04L287.02-67.04L287.02-67.04Q290.11-67.20 291.06-67.30L291.06-67.30L291.48-66.57L290.85-62.68L290.85-62.68Q287.49-62.05 285.60-60.95L285.60-60.95L285.60-60.95Q283.71-59.85 282.29-57.80L282.29-57.80L282.29-57.80Q280.87-55.75 278.14-50.92L278.14-50.92L278.14-50.92Q277.51-49.66 277.09-49.03L277.09-49.03L266.59-30.55L266.59-30.55Q265.23-28.14 264.86-25.09L264.86-25.09L264.86-25.09Q264.49-22.05 264.28-14.07L264.28-14.07L264.28-11.76L264.28-11.76Q264.18-7.67 265.18-6.14L265.18-6.14L265.18-6.14Q266.17-4.62 268.90-4.62L268.90-4.62L268.90-4.62Q270.58-4.62 272.05-4.72L272.05-4.72L272.05-4.72Q273.52-4.83 274.05-4.93L274.05-4.93L274.26-4.51L273.31 0.32L273.31 0.32Q271.84 0.21 267.91 0.10L267.91 0.10L267.91 0.10Q263.97 0 259.98 0L259.98 0L259.98 0Q256.72 0 252.94 0.53L252.94 0.53L252.94 0.53Q249.16 1.05 248.01 1.26L248.01 1.26ZM317.83 0.94L317.83 0.94Q310.69 0.94 305.18-2.21L305.18-2.21L305.18-2.21Q299.67-5.35 296.68-11.13L296.68-11.13L296.68-11.13Q293.68-16.91 293.68-24.46L293.68-24.46L293.68-24.46Q293.68-32.66 297.41-39.22L297.41-39.22L297.41-39.22Q301.14-45.78 307.60-49.51L307.60-49.51L307.60-49.51Q314.05-53.23 322.03-53.23L322.03-53.23L322.03-53.23Q329.28-53.23 334.84-50.09L334.84-50.09L334.84-50.09Q340.41-46.93 343.45-41.21L343.45-41.21L343.45-41.21Q346.50-35.49 346.50-27.93L346.50-27.93L346.50-27.93Q346.50-19.74 342.77-13.18L342.77-13.18L342.77-13.18Q339.04-6.61 332.48-2.83L332.48-2.83L332.48-2.83Q325.92 0.94 317.83 0.94L317.83 0.94ZM320.35-4.09L320.35-4.09Q328.02-4.09 332.74-9.61L332.74-9.61L332.74-9.61Q337.47-15.12 337.47-24.25L337.47-24.25L337.47-24.25Q337.47-31.18 335.21-36.43L335.21-36.43L335.21-36.43Q332.95-41.68 328.81-44.52L328.81-44.52L328.81-44.52Q324.66-47.35 319.20-47.35L319.20-47.35L319.20-47.35Q311.74-47.35 307.18-41.89L307.18-41.89L307.18-41.89Q302.61-36.43 302.61-27.30L302.61-27.30L302.61-27.30Q302.61-20.37 304.81-15.12L304.81-15.12L304.81-15.12Q307.02-9.87 311.06-6.98L311.06-6.98L311.06-6.98Q315.10-4.09 320.35-4.09L320.35-4.09ZM396.06 1.26L396.06 1.26Q393.75 1.26 391.33-0.79L391.33-0.79L391.33-0.79Q388.92-2.83 386.92-6.40L386.92-6.40L378.10-21.84L371.28-21.84L371.07-10.61L371.07-10.61Q371.07-7.56 371.49-6.25L371.49-6.25L371.49-6.25Q371.91-4.93 373.12-4.51L373.12-4.51L373.12-4.51Q374.32-4.09 377.26-3.99L377.26-3.99L377.47-3.67L376.63 0.32L376.63 0.32Q375.37 0.21 372.07 0.16L372.07 0.16L372.07 0.16Q368.76 0.10 365.40 0.10L365.40 0.10L365.40 0.10Q362.14 0.10 359.73 0.21L359.73 0.21L359.73 0.21Q357.31 0.32 356.47 0.42L356.47 0.42L357.21-3.88L357.21-3.88Q361.09-4.41 362.35-5.67L362.35-5.67L362.35-5.67Q363.61-6.93 363.61-10.39L363.61-10.39L363.72-43.89L363.72-43.89Q363.72-46.41 363.09-47.30L363.09-47.30L363.09-47.30Q362.46-48.20 360.67-48.20L360.67-48.20L357.73-48.09L357.42-48.51L358.05-52.50L358.05-52.50Q359.10-52.50 362.04-52.39L362.04-52.39L362.04-52.39Q364.98-52.29 367.92-52.29L367.92-52.29L367.92-52.29Q370.96-52.29 374.43-52.45L374.43-52.45L374.43-52.45Q377.89-52.60 379.15-52.60L379.15-52.60L379.15-52.60Q387.66-52.60 392.49-49.09L392.49-49.09L392.49-49.09Q397.32-45.57 397.32-39.38L397.32-39.38L397.32-39.38Q397.32-34.55 394.06-30.45L394.06-30.45L394.06-30.45Q390.81-26.36 384.93-23.73L384.93-23.73L393.85-10.29L393.85-10.29Q396.37-6.51 398.68-4.93L398.68-4.93L398.68-4.93Q400.99-3.36 404.25-3.36L404.25-3.36L404.67-2.83L404.14 0.42L396.06 1.26ZM379.99-26.46L379.99-26.46Q381.99-27.30 383.51-28.09L383.51-28.09L383.51-28.09Q385.03-28.88 386.92-31.39L386.92-31.39L386.92-31.39Q388.81-33.91 388.81-37.91L388.81-37.91L388.81-37.91Q388.81-48.09 373.80-48.09L373.80-48.09L373.80-48.09Q372.96-48.09 372.64-47.72L372.64-47.72L372.64-47.72Q372.33-47.35 372.33-46.20L372.33-46.20L372.33-46.20Q371.49-33.39 371.49-27.30L371.49-27.30L379.99-26.46ZM419.26-43.78L419.26-43.78Q419.26-46.41 418.63-47.30L418.63-47.30L418.63-47.30Q418.00-48.20 416.11-48.20L416.11-48.20L413.28-48.09L412.96-48.51L413.59-52.50L413.59-52.50Q414.75-52.50 417.79-52.39L417.79-52.39L417.79-52.39Q420.84-52.29 423.67-52.29L423.67-52.29L423.67-52.29Q425.98-52.29 429.24-52.60L429.24-52.60L429.24-52.60Q432.49-52.92 433.54-53.02L433.54-53.02L433.23-48.72L433.23-48.72Q429.97-48.20 428.82-47.20L428.82-47.20L428.82-47.20Q427.66-46.20 427.56-43.89L427.56-43.89L426.61-9.76L426.61-9.76Q426.51-6.40 427.30-5.25L427.30-5.25L427.30-5.25Q428.08-4.09 430.29-4.09L430.29-4.09L430.29-4.09Q431.55-4.09 432.60-4.20L432.60-4.20L432.60-4.20Q433.65-4.30 433.96-4.41L433.96-4.41L434.17-3.99L433.44 0.21L433.44 0.21Q432.28 0.21 429.03 0.10L429.03 0.10L429.03 0.10Q425.77 0 422.41 0L422.41 0L412.02 0.10L412.86-4.09L412.86-4.09Q416.85-4.51 418.00-5.67L418.00-5.67L418.00-5.67Q419.16-6.83 419.16-10.39L419.16-10.39L419.26-43.78ZM429.03-27.20L443.73-41.79L443.73-41.79Q446.25-44.20 446.25-45.88L446.25-45.88L446.25-45.88Q446.25-48.09 441.10-48.41L441.10-48.41L440.89-48.82L441.52-52.81L441.52-52.81Q442.57-52.71 445.93-52.50L445.93-52.50L445.93-52.50Q449.29-52.29 451.29-52.29L451.29-52.29L451.29-52.29Q454.02-52.29 456.49-52.39L456.49-52.39L456.49-52.39Q458.95-52.50 459.79-52.60L459.79-52.60L460.21-51.98L459.58-48.20L459.58-48.20Q457.27-47.56 455.23-46.04L455.23-46.04L455.23-46.04Q453.18-44.52 449.29-40.53L449.29-40.53L436.69-28.04L450.34-10.61L450.34-10.61Q453.39-6.83 455.75-5.25L455.75-5.25L455.75-5.25Q458.11-3.67 461.05-3.57L461.05-3.57L461.47-3.04L460.95 0.21L460.95 0.21Q459.90 0.32 457.33 0.68L457.33 0.68L457.33 0.68Q454.75 1.05 453.07 1.16L453.07 1.16L453.07 1.16Q448.45 1.16 443.41-5.77L443.41-5.77L428.92-25.83L429.03-27.20Z" fill="url(#editing-shiny-gradient)"></path></g></g><g filter="url(#editing-shiny2)"><g transform="translate(16.43000602722168, 110.95999908447266)"><path d="M59.85 4.20L59.85 4.20Q50.71-9.97 42.05-22.84L42.05-22.84L42.05-22.84Q33.39-35.70 27.82-43.63L27.82-43.63L27.82-43.63Q22.26-51.55 20.79-53.66L20.79-53.66L20.27-53.66L19.74-8.82L19.74-8.82Q19.74-6.51 20.47-5.56L20.47-5.56L20.47-5.56Q21.21-4.62 22.99-4.62L22.99-4.62L28.35-4.72L28.56-4.30L27.61 0.42L27.61 0.42Q26.46 0.32 22.89 0.16L22.89 0.16L22.89 0.16Q19.32 0 16.48 0L16.48 0L16.48 0Q13.86 0 10.76 0.37L10.76 0.37L10.76 0.37Q7.67 0.73 6.72 0.84L6.72 0.84L7.25-3.99L7.25-3.99Q10.50-4.41 12.07-5.93L12.07-5.93L12.07-5.93Q13.65-7.46 13.75-10.61L13.75-10.61L15.12-56.49L15.12-56.49Q15.12-59.74 13.18-61.11L13.18-61.11L13.18-61.11Q11.23-62.47 5.98-63L5.98-63L5.67-63.52L6.51-67.41L6.51-67.41Q7.46-67.30 10.61-67.09L10.61-67.09L10.61-67.09Q13.75-66.88 15.54-66.88L15.54-66.88L15.54-66.88Q17.75-66.88 19.84-67.04L19.84-67.04L19.84-67.04Q21.95-67.20 22.57-67.30L22.57-67.30L22.57-67.30Q30.34-55.23 38.17-43.68L38.17-43.68L38.17-43.68Q45.99-32.13 51.24-24.68L51.24-24.68L51.24-24.68Q56.49-17.22 57.85-15.22L57.85-15.22L58.38-15.22L58.38-57.75L58.38-57.75Q58.38-62.27 54.91-62.27L54.91-62.27L50.92-62.16L50.71-62.58L51.66-67.30L51.66-67.30Q52.71-67.20 55.65-67.04L55.65-67.04L55.65-67.04Q58.59-66.88 61.63-66.88L61.63-66.88L61.63-66.88Q64.36-66.88 67.67-67.25L67.67-67.25L67.67-67.25Q70.98-67.62 72.03-67.72L72.03-67.72L71.50-62.89L71.50-62.89Q67.83-62.37 66.15-60.85L66.15-60.85L66.15-60.85Q64.47-59.32 64.36-56.28L64.36-56.28L62.89 2.73L59.85 4.20ZM81.16 0.84L81.69-3.57L81.69-3.57Q85.57-3.99 86.94-5.46L86.94-5.46L86.94-5.46Q88.30-6.93 88.30-10.50L88.30-10.50L88.41-43.78L88.41-43.78Q88.41-46.41 87.78-47.30L87.78-47.30L87.78-47.30Q87.15-48.20 85.26-48.20L85.26-48.20L82.42-48.09L82.21-48.51L82.84-52.50L82.84-52.50Q84.10-52.50 87.78-52.39L87.78-52.39L87.78-52.39Q91.45-52.29 95.76-52.29L95.76-52.29L95.76-52.29Q113.29-52.29 121.69-53.23L121.69-53.23L122.01-52.71L122.01-52.71Q121.80-51.55 121.06-47.46L121.06-47.46L121.06-47.46Q120.33-43.36 120.01-38.64L120.01-38.64L114.97-38.22L114.97-38.22Q114.97-38.64 115.08-39.64L115.08-39.64L115.08-39.64Q115.18-40.63 115.18-41.68L115.18-41.68L115.18-41.68Q115.18-44.41 114.40-45.52L114.40-45.52L114.40-45.52Q113.61-46.62 111.14-46.99L111.14-46.99L111.14-46.99Q108.67-47.35 102.58-47.35L102.58-47.35L102.58-47.35Q99.75-47.35 98.70-47.20L98.70-47.20L98.70-47.20Q97.65-47.04 97.33-46.46L97.33-46.46L97.33-46.46Q97.02-45.88 96.91-44.31L96.91-44.31L96.28-29.40L104.89-29.29L104.89-29.29Q106.78-29.29 110.46-29.66L110.46-29.66L110.46-29.66Q114.13-30.03 115.29-30.13L115.29-30.13L115.71-29.61L114.45-24.15L114.45-24.15Q113.29-24.15 109.88-24.25L109.88-24.25L109.88-24.25Q106.47-24.36 102.69-24.36L102.69-24.36L102.69-24.36Q99.75-24.36 96.07-23.84L96.07-23.84L96.07-23.84Q95.76-15.85 95.76-9.45L95.76-9.45L95.76-9.45Q95.76-7.04 96.13-6.09L96.13-6.09L96.13-6.09Q96.49-5.14 97.81-4.83L97.81-4.83L97.81-4.83Q99.12-4.51 102.16-4.51L102.16-4.51L102.16-4.51Q108.99-4.51 111.93-5.14L111.93-5.14L111.93-5.14Q114.87-5.77 116.08-7.72L116.08-7.72L116.08-7.72Q117.28-9.66 118.02-14.38L118.02-14.38L122.64-14.80L123.06-14.28L123.06-14.28Q122.74-13.13 121.96-8.87L121.96-8.87L121.96-8.87Q121.17-4.62 120.75 0L120.75 0L120.12 0.53L120.12 0.53Q117.28 0.42 108.36 0.21L108.36 0.21L108.36 0.21Q99.43 0 93.87 0L93.87 0L93.87 0Q89.56 0 85.89 0.37L85.89 0.37L85.89 0.37Q82.21 0.73 81.16 0.84L81.16 0.84ZM150.78 1.36L150.78 1.36Q149.52-2.94 145.27-17.06L145.27-17.06L145.27-17.06Q141.01-31.18 136.92-43.36L136.92-43.36L136.92-43.36Q136.08-45.78 134.35-46.93L134.35-46.93L134.35-46.93Q132.61-48.09 129.57-48.20L129.57-48.20L129.57-48.20Q129.57-48.30 129.36-48.51L129.36-48.51L129.99-52.50L129.99-52.50Q131.14-52.50 134.08-52.39L134.08-52.39L134.08-52.39Q137.02-52.29 139.86-52.29L139.86-52.29L139.86-52.29Q143.74-52.29 147.68-52.66L147.68-52.66L147.68-52.66Q151.62-53.02 152.77-53.13L152.77-53.13L153.09-52.50L152.67-48.72L152.67-48.72Q148.26-48.41 146.89-47.77L146.89-47.77L146.89-47.77Q145.53-47.14 145.53-45.46L145.53-45.46L145.53-45.46Q145.53-43.47 149.68-28.77L149.68-28.77L149.68-28.77Q153.82-14.07 155.40-8.82L155.40-8.82L156.03-8.82L156.03-8.82Q158.65-15.22 163.06-27.40L163.06-27.40L163.06-27.40Q164.74-32.13 167.58-39.69L167.58-39.69L167.58-39.69Q167.58-39.69 166.21-43.78L166.21-43.78L166.21-43.78Q165.48-46.09 163.75-47.04L163.75-47.04L163.75-47.04Q162.01-47.98 158.76-48.20L158.76-48.20L158.55-48.51L159.18-52.50L159.18-52.50Q160.33-52.50 163.43-52.39L163.43-52.39L163.43-52.39Q166.53-52.29 169.47-52.29L169.47-52.29L169.47-52.29Q172.83-52.29 176.92-52.66L176.92-52.66L176.92-52.66Q181.02-53.02 182.28-53.13L182.28-53.13L182.59-52.50L182.28-48.72L182.28-48.72Q177.87-48.41 176.45-47.77L176.45-47.77L176.45-47.77Q175.03-47.14 175.03-45.46L175.03-45.46L175.03-45.46Q175.03-43.68 179.18-28.93L179.18-28.93L179.18-28.93Q183.33-14.17 184.90-8.82L184.90-8.82L185.64-8.82L185.64-8.82Q189.00-17.01 193.83-30.50L193.83-30.50L193.83-30.50Q198.66-43.99 198.66-45.67L198.66-45.67L198.66-45.67Q198.66-47.14 197.45-47.77L197.45-47.77L197.45-47.77Q196.24-48.41 193.20-48.41L193.20-48.41L189.21-48.41L189.00-48.82L189.63-52.81L189.63-52.81Q190.78-52.71 194.51-52.50L194.51-52.50L194.51-52.50Q198.24-52.29 201.60-52.29L201.60-52.29L201.60-52.29Q204.75-52.29 207.43-52.39L207.43-52.39L207.43-52.39Q210.10-52.50 210.94-52.50L210.94-52.50L210.31-48.20L210.31-48.20Q207.90-47.98 206.90-47.25L206.90-47.25L206.90-47.25Q205.90-46.52 205.06-44.10L205.06-44.10L187.74-0.42L180.28 1.36L180.28 1.36Q180.07 0.10 176.98-10.29L176.98-10.29L176.98-10.29Q173.88-20.68 170.31-31.61L170.31-31.61L169.78-31.61L158.34-0.42L150.78 1.36ZM248.01 1.26L248.64-3.57L248.64-3.57Q252.42-4.30 254.10-5.46L254.10-5.46L254.10-5.46Q255.78-6.61 256.30-8.61L256.30-8.61L256.30-8.61Q256.83-10.61 256.83-14.91L256.83-14.91L256.83-19.53L256.83-19.53Q256.83-22.79 256.20-25.25L256.20-25.25L256.20-25.25Q255.57-27.72 253.78-31.39L253.78-31.39L244.33-50.61L244.33-50.61Q241.60-56.17 240.45-58.12L240.45-58.12L240.45-58.12Q239.29-60.06 237.19-61.21L237.19-61.21L237.19-61.21Q235.09-62.37 231.10-62.68L231.10-62.68L230.89-63.10L231.52-67.20L231.52-67.20Q232.68-67.09 235.93-66.99L235.93-66.99L235.93-66.99Q239.19-66.88 243.07-66.88L243.07-66.88L243.07-66.88Q246.75-66.88 251.63-67.25L251.63-67.25L251.63-67.25Q256.51-67.62 257.98-67.72L257.98-67.72L258.30-66.99L257.98-63.31L257.98-63.31Q253.26-62.89 251.63-62.11L251.63-62.11L251.63-62.11Q250.00-61.32 250.00-59.53L250.00-59.53L250.00-59.53Q250.00-58.17 252.63-52.08L252.63-52.08L252.63-52.08Q255.25-45.99 258.04-40.11L258.04-40.11L258.04-40.11Q260.82-34.23 261.76-32.45L261.76-32.45L262.29-32.45L274.26-54.70L274.26-54.70Q275.94-57.75 275.94-59.95L275.94-59.95L275.94-59.95Q275.94-62.68 269.32-63.10L269.32-63.10L269.11-63.52L269.74-67.62L269.74-67.62Q271.00-67.52 274.99-67.20L274.99-67.20L274.99-67.20Q278.98-66.88 281.40-66.88L281.40-66.88L281.40-66.88Q283.92-66.88 287.02-67.04L287.02-67.04L287.02-67.04Q290.11-67.20 291.06-67.30L291.06-67.30L291.48-66.57L290.85-62.68L290.85-62.68Q287.49-62.05 285.60-60.95L285.60-60.95L285.60-60.95Q283.71-59.85 282.29-57.80L282.29-57.80L282.29-57.80Q280.87-55.75 278.14-50.92L278.14-50.92L278.14-50.92Q277.51-49.66 277.09-49.03L277.09-49.03L266.59-30.55L266.59-30.55Q265.23-28.14 264.86-25.09L264.86-25.09L264.86-25.09Q264.49-22.05 264.28-14.07L264.28-14.07L264.28-11.76L264.28-11.76Q264.18-7.67 265.18-6.14L265.18-6.14L265.18-6.14Q266.17-4.62 268.90-4.62L268.90-4.62L268.90-4.62Q270.58-4.62 272.05-4.72L272.05-4.72L272.05-4.72Q273.52-4.83 274.05-4.93L274.05-4.93L274.26-4.51L273.31 0.32L273.31 0.32Q271.84 0.21 267.91 0.10L267.91 0.10L267.91 0.10Q263.97 0 259.98 0L259.98 0L259.98 0Q256.72 0 252.94 0.53L252.94 0.53L252.94 0.53Q249.16 1.05 248.01 1.26L248.01 1.26ZM317.83 0.94L317.83 0.94Q310.69 0.94 305.18-2.21L305.18-2.21L305.18-2.21Q299.67-5.35 296.68-11.13L296.68-11.13L296.68-11.13Q293.68-16.91 293.68-24.46L293.68-24.46L293.68-24.46Q293.68-32.66 297.41-39.22L297.41-39.22L297.41-39.22Q301.14-45.78 307.60-49.51L307.60-49.51L307.60-49.51Q314.05-53.23 322.03-53.23L322.03-53.23L322.03-53.23Q329.28-53.23 334.84-50.09L334.84-50.09L334.84-50.09Q340.41-46.93 343.45-41.21L343.45-41.21L343.45-41.21Q346.50-35.49 346.50-27.93L346.50-27.93L346.50-27.93Q346.50-19.74 342.77-13.18L342.77-13.18L342.77-13.18Q339.04-6.61 332.48-2.83L332.48-2.83L332.48-2.83Q325.92 0.94 317.83 0.94L317.83 0.94ZM320.35-4.09L320.35-4.09Q328.02-4.09 332.74-9.61L332.74-9.61L332.74-9.61Q337.47-15.12 337.47-24.25L337.47-24.25L337.47-24.25Q337.47-31.18 335.21-36.43L335.21-36.43L335.21-36.43Q332.95-41.68 328.81-44.52L328.81-44.52L328.81-44.52Q324.66-47.35 319.20-47.35L319.20-47.35L319.20-47.35Q311.74-47.35 307.18-41.89L307.18-41.89L307.18-41.89Q302.61-36.43 302.61-27.30L302.61-27.30L302.61-27.30Q302.61-20.37 304.81-15.12L304.81-15.12L304.81-15.12Q307.02-9.87 311.06-6.98L311.06-6.98L311.06-6.98Q315.10-4.09 320.35-4.09L320.35-4.09ZM396.06 1.26L396.06 1.26Q393.75 1.26 391.33-0.79L391.33-0.79L391.33-0.79Q388.92-2.83 386.92-6.40L386.92-6.40L378.10-21.84L371.28-21.84L371.07-10.61L371.07-10.61Q371.07-7.56 371.49-6.25L371.49-6.25L371.49-6.25Q371.91-4.93 373.12-4.51L373.12-4.51L373.12-4.51Q374.32-4.09 377.26-3.99L377.26-3.99L377.47-3.67L376.63 0.32L376.63 0.32Q375.37 0.21 372.07 0.16L372.07 0.16L372.07 0.16Q368.76 0.10 365.40 0.10L365.40 0.10L365.40 0.10Q362.14 0.10 359.73 0.21L359.73 0.21L359.73 0.21Q357.31 0.32 356.47 0.42L356.47 0.42L357.21-3.88L357.21-3.88Q361.09-4.41 362.35-5.67L362.35-5.67L362.35-5.67Q363.61-6.93 363.61-10.39L363.61-10.39L363.72-43.89L363.72-43.89Q363.72-46.41 363.09-47.30L363.09-47.30L363.09-47.30Q362.46-48.20 360.67-48.20L360.67-48.20L357.73-48.09L357.42-48.51L358.05-52.50L358.05-52.50Q359.10-52.50 362.04-52.39L362.04-52.39L362.04-52.39Q364.98-52.29 367.92-52.29L367.92-52.29L367.92-52.29Q370.96-52.29 374.43-52.45L374.43-52.45L374.43-52.45Q377.89-52.60 379.15-52.60L379.15-52.60L379.15-52.60Q387.66-52.60 392.49-49.09L392.49-49.09L392.49-49.09Q397.32-45.57 397.32-39.38L397.32-39.38L397.32-39.38Q397.32-34.55 394.06-30.45L394.06-30.45L394.06-30.45Q390.81-26.36 384.93-23.73L384.93-23.73L393.85-10.29L393.85-10.29Q396.37-6.51 398.68-4.93L398.68-4.93L398.68-4.93Q400.99-3.36 404.25-3.36L404.25-3.36L404.67-2.83L404.14 0.42L396.06 1.26ZM379.99-26.46L379.99-26.46Q381.99-27.30 383.51-28.09L383.51-28.09L383.51-28.09Q385.03-28.88 386.92-31.39L386.92-31.39L386.92-31.39Q388.81-33.91 388.81-37.91L388.81-37.91L388.81-37.91Q388.81-48.09 373.80-48.09L373.80-48.09L373.80-48.09Q372.96-48.09 372.64-47.72L372.64-47.72L372.64-47.72Q372.33-47.35 372.33-46.20L372.33-46.20L372.33-46.20Q371.49-33.39 371.49-27.30L371.49-27.30L379.99-26.46ZM419.26-43.78L419.26-43.78Q419.26-46.41 418.63-47.30L418.63-47.30L418.63-47.30Q418.00-48.20 416.11-48.20L416.11-48.20L413.28-48.09L412.96-48.51L413.59-52.50L413.59-52.50Q414.75-52.50 417.79-52.39L417.79-52.39L417.79-52.39Q420.84-52.29 423.67-52.29L423.67-52.29L423.67-52.29Q425.98-52.29 429.24-52.60L429.24-52.60L429.24-52.60Q432.49-52.92 433.54-53.02L433.54-53.02L433.23-48.72L433.23-48.72Q429.97-48.20 428.82-47.20L428.82-47.20L428.82-47.20Q427.66-46.20 427.56-43.89L427.56-43.89L426.61-9.76L426.61-9.76Q426.51-6.40 427.30-5.25L427.30-5.25L427.30-5.25Q428.08-4.09 430.29-4.09L430.29-4.09L430.29-4.09Q431.55-4.09 432.60-4.20L432.60-4.20L432.60-4.20Q433.65-4.30 433.96-4.41L433.96-4.41L434.17-3.99L433.44 0.21L433.44 0.21Q432.28 0.21 429.03 0.10L429.03 0.10L429.03 0.10Q425.77 0 422.41 0L422.41 0L412.02 0.10L412.86-4.09L412.86-4.09Q416.85-4.51 418.00-5.67L418.00-5.67L418.00-5.67Q419.16-6.83 419.16-10.39L419.16-10.39L419.26-43.78ZM429.03-27.20L443.73-41.79L443.73-41.79Q446.25-44.20 446.25-45.88L446.25-45.88L446.25-45.88Q446.25-48.09 441.10-48.41L441.10-48.41L440.89-48.82L441.52-52.81L441.52-52.81Q442.57-52.71 445.93-52.50L445.93-52.50L445.93-52.50Q449.29-52.29 451.29-52.29L451.29-52.29L451.29-52.29Q454.02-52.29 456.49-52.39L456.49-52.39L456.49-52.39Q458.95-52.50 459.79-52.60L459.79-52.60L460.21-51.98L459.58-48.20L459.58-48.20Q457.27-47.56 455.23-46.04L455.23-46.04L455.23-46.04Q453.18-44.52 449.29-40.53L449.29-40.53L436.69-28.04L450.34-10.61L450.34-10.61Q453.39-6.83 455.75-5.25L455.75-5.25L455.75-5.25Q458.11-3.67 461.05-3.57L461.05-3.57L461.47-3.04L460.95 0.21L460.95 0.21Q459.90 0.32 457.33 0.68L457.33 0.68L457.33 0.68Q454.75 1.05 453.07 1.16L453.07 1.16L453.07 1.16Q448.45 1.16 443.41-5.77L443.41-5.77L428.92-25.83L429.03-27.20Z" fill="url(#editing-shiny-gradient2)"></path></g></g><style>text {
  font-size: 64px;
  font-family: Arial Black;
  dominant-baseline: central;
  text-anchor: middle;
}</style></svg>