<svg width="200" height="200" xmlns="http://www.w3.org/2000/svg">
 <g id="Layer_1">
  <title>Layer 1</title>
  <path id="svg_1" d="m49.80013,22.61156l-7.71558,0c0,0 -6.00102,-0.50993 -7.71558,6.11901c-3.05411,4.78039 -8.7604,2.67702 -10.28742,4.58922c-1.6878,0 -5.57238,0.89234 -5.14374,3.05944c0.42864,2.16716 1.71462,2.54957 1.28592,3.0595c-0.42864,0.50993 -1.60742,10.96319 9.64449,10.70823c0,0 1.17877,3.05944 6.42966,0c0,0 1.17872,-1.14731 3.21477,0.76483c2.03611,1.9122 6.10817,3.31447 7.07265,3.0595c0.96443,-0.25496 7.07259,12.11043 7.07259,29.82993c0,17.71957 8.25142,29.95745 10.93041,30.59489c0,0 6.50999,24.66706 6.7511,46.6571c0,0 1.60742,9.30596 -5.46518,9.17844c-3.8176,3.77657 -5.5054,6.358 -3.21483,6.11901c0,0 0.8841,1.72089 2.57184,1.52972c0.73087,-0.3105 -5.90722,5.64094 -3.21483,5.35411c0,0 1.17883,4.07929 5.78667,1.52972c0,0 7.07265,0.76489 7.71558,-4.58922c0.64299,-5.35411 0.96448,-14.05449 3.85782,-13.00284c0,0 0.42858,-42.70525 3.85776,-45.8922c0,0 17.03401,1.67273 36.649,-12.23794c5.57238,-3.95184 11.25185,-9.81588 12.21628,3.82433c0.96448,13.64021 18.21735,24.98581 20.5749,32.88943c2.35755,7.90369 3.64347,5.09915 3.21477,23.71099c0,0 -4.07205,-1.14731 -7.07259,3.0595c-1.92891,2.29461 0.64299,2.29461 0.64299,2.29461c0,0 -1.50027,1.78468 3.21483,1.52978c0,0 0.64293,0.86041 3.85776,0c0,0 5.35803,0.38241 4.50075,-4.58922c0,0 0.32149,-28.30028 1.92891,-26.7705c1.60742,1.52972 9.85878,10.45319 9.64443,29.82993c0,0 -3.64347,0.63738 -3.85776,5.35411c0,0 -1.82171,2.42206 0.64293,3.0595c0,0 3.45594,1.05165 4.50075,0c0,0 4.39366,1.78468 4.50075,-4.58929c0.10715,-6.3739 -3.53627,-28.49139 -1.92885,-33.65426c0,0 -13.82375,-9.56092 -16.07415,-39.00844c0,0 6.42966,24.98581 27.00456,20.65149c0,0 1.50027,-0.76483 -0.64299,-1.52972c-2.14326,-0.76489 -19.07463,1.9122 -23.14674,-22.9461c-2.97372,-17.7833 -0.72332,-19.69543 -10.28742,-26.7705c-12.85926,-14.62814 -44.90036,0.12745 -54.65194,-4.58922c-9.0015,-5.35411 -9.323,-5.4497 -19.28892,-9.17844c-10.20709,-6.40583 -8.46566,-13.76766 -16.07409,-23.71099c-5.82689,-9.32185 -5.89382,-8.2861 -6.42966,-9.17844c-0.53584,-0.89241 -0.10715,-5.09915 -7.07259,-6.11901z"/>
 </g>
</svg>