<?xml version="1.0" encoding="utf-8"?>
<!DOCTYPE svg PUBLIC "-//W3C//DTD SVG 1.1//EN" "http://www.w3.org/Graphics/SVG/1.1/DTD/svg11.dtd">
<svg version="1.1" id="Layer_1" xmlns="http://www.w3.org/2000/svg" xmlns:xlink="http://www.w3.org/1999/xlink" x="0px" y="0px"
	 viewBox="350.0945 -71.2679 1732.4912 1732.4912" enable-background="new 350.0945 -71.2679 1732.4912 1732.4912"
	 xml:space="preserve">
<g>
	<g id="XMLID_1_">
		<path fill="#171717" d="M1786.15,674.26c1.6899,0.91,0.96,3.29-0.0601,4.48c-4.1699,4.98-9.9299,8.87-16.4299,9.91
			c-7.14,1.28-14.39-1.34-20.2001-5.38c0.12,3.34,0.2301,6.93-1.5599,9.9c-2.25,4.04-7.39,5.68-11.76,4.94
			c-4.71-0.82-8.49-4-11.77-7.27c-0.23,3.34-0.4299,6.93-2.39,9.79c-2.12,3.21-6.73,4.44-10.13,2.63c-3.52-1.83-5.83-5.2-7.83-8.49
			c-1.21,7.3-2.78,15.1-7.88,20.79c-3.87,4.33-10.17,5.44-15.66,4.4c-4.3199-0.7401-8.77-2.9301-10.8099-6.9901
			c-2.8101-5.96-2.36-12.81-1.42-19.15c1.55-9.56,3.0601-19.26,2.3-28.97c-0.5601-6.92-2.5701-13.87-6.63-19.56
			c-4.0901-5.79-9.49-10.46-14.62-15.28c-22.2101-21.65-43.5901-44.3-68.04-63.48c-25.78-20.03-55.42-34.67-86.4-44.73
			c-27.59-9.21-55.9399-16.05-84.52-21.35c3.67,19.58,6.27,39.39,7.02,59.31c1,20.89-0.8199,41.78-2.85,62.56
			c-2.27,22.04-5.5599,43.95-9.5699,65.74c-3.25,16.86-6.6901,33.8-7.0801,51.04c1.5901-2.14,4.2001-2.17,6.64-2.04
			c4.78,1.65,9.91,2.45,14.42,4.93c9.37,4.55,17.4099,12.32,21.13,22.17c2.39,5.8,2.3199,12.52-0.27,18.25
			c13.08,12.72,21.67,29.67,25.73,47.35c0.85,2.54-1.54,5.65-4.24,5.15c-11.9301-0.98-22.14-8.2599-30.61-16.22
			c-5.41-4.93-10.25-10.45-15.5-15.53c0.5699,1.91-0.13,4.61,1.75,5.9301c22.76,18.6899,42.88,40.9399,57.6,66.53
			c7.65,13.66,14.08,28.41,15.8,44.1c1.1,10.22-0.3,21.44-7.11,29.56c-5.91,7.22-15.3101,10.59-24.42,11.03
			c-12.96,0.6-25.71-3-37.6-7.85c-9.42-3.87-18.3501-8.81-26.9701-14.2c-0.5099,15.97-2.62,32.45-10.2599,46.72
			c-4.2001,7.73-10.67,14.69-19.2101,17.49c-8.74,3.04-18.4199,1.07-26.45-3.08c-17.36-9.27-29.7101-25.43-39.87-41.87
			c-3.5701,12.3-8.64,24.4-16.5801,34.55c-3.97,5.04-8.83,9.45-14.5599,12.39c4.4399,42.2299,7.87,84.56,9.89,126.97
			c1.87,34.5599,3.39,69.13,5,103.7c7.7-3.63,16.2-6.66,24.84-5.54c6.5,0.76,12.52,5.3401,14.5601,11.62
			c1.2899,3.64,0.0399,7.7101-2.2101,10.7101c-3.37,4.5399-8.35,7.5399-13.37,9.98c5.0801,2.9299,10.84,5.6,13.8301,10.96
			c3.59,5.76,1.6599,13.66-3.26,18.03c-6.51,5.9299-17.2301,6.52-24.29,1.1799c-3.35-2.35-5.63-5.7899-7.97-9.0599
			c0.7799,17.3,1.4,34.62,2.45,51.9c2.79-1.85,4,1.48,4.97,3.47c0.91,1.6899,0.8501,3.65,0.88,5.53
			c0.3201,30.2999,2.8501,60.62,0.8101,90.9c-0.9501,6.62,0.35,13.25,0.6799,19.87c1.12,15.0299,1.03,30.1599-0.23,45.1799
			c-1.15,13.04-3.4,26.48-10.49,37.75c-4.47,7.4501-11.71,12.9501-19.75,16.09c-8.71,3.41-18.0599,5.41-27.46,5.17
			c-11.47-0.34-22.72-2.8-34.11-3.98c-1.37,0.02-1.79-1.53-2.05-2.54c-9.9399-37.09-16.09-75.14-19.3199-113.39
			c-2.16-25.74-3.05-51.51-2.99-77.2799c0.11-61.0601,5.47-122.13,11.51-182.8401c2.24-22.89,4.5599-45.77,6.72-68.6699
			c5.34-52.7301,7.48-105.7601,7.3199-158.7501c-2.16-7.39-4.52-14.77-6.13-22.32c-4.09,17.15-9.5399,34.2-18.61,49.42
			c-6.86,11.44-16,22.61-28.87,27.39c0.63,21.8901,1.74,43.7701,3.3201,65.61c6.98,84.97,18.36,169.64,20.9199,254.9199
			c0.37,11.7301,0.5601,23.4801,0.5601,35.2301c0,64.0399-5.89,128.2699-22.7101,190.1699c-0.6599,2.92-3.9399,3.27-6.4099,3.39
			c-13.52,1.48-27.0601,4.42-40.7301,3c-11.71-1.22-23.74-5.24-31.99-13.99c-6.6599-7.1899-10.0399-16.76-12.2999-26.13
			c-2.9401-12.01-2.01-24.45-2.38-36.6899c-0.4-13.64,0.2-27.27,1.22-40.86c-2.25-32.75-0.01-65.55,0.46-98.3101
			c-0.12-2.48,1.66-4.39,2.9-6.34c0.5601-1.04,1.5801-1.6,2.76-1.5c1.27-17,1.7001-34.0701,2.63-51.1c-0.01-0.9,0.3-1.9-0.52-2.5
			c-0.01,0.4099-0.0399,1.23-0.0499,1.6399c-4.26,7.14-11.5,13.41-20.2201,13.38c-8.2,0.14-17.2799-6.4299-16.6899-15.24
			c0.77-8.74,8.51-14.45,15.83-17.9299c-4.83-1.77-9.63-4.25-12.85-8.37c-3.6-4.5801-4.11-11.48-0.66-16.29
			c3.92-5.25,10.4301-8.21,16.91-8.4c7.12-0.26,14.04,2.01,20.4401,4.9301c1.98-44.9401,3.71-89.91,6.5599-134.8101
			c2.09-35.5599,5.46-71.02,9.4301-106.41c-5.3101,5.6-11.5901,10.6-19.0701,12.89c-7.7899,2.52-16.58,1.42-23.59-2.77
			c-9.74-5.7-16.39-15.33-21.37-25.22c-3.28-6.5-5.75-13.37-7.88-20.32c-6.7,9.96-13.49,20.03-22.22,28.38
			c-6.81,6.54-14.53,12.44-23.51,15.61c-6.8199,2.43-14.49,2.91-21.34,0.34c-8.27-2.97-14.52-9.8199-18.58-17.41
			c-7.56-14.25-9.69-30.65-10.15-46.55c-13.38,8.36-27.65,15.63-43,19.6c-10.05,2.5-20.8,3.74-30.91,0.93
			c-7.4-2.03-14.14-6.8-17.92-13.55c-5.16-8.89-5.29-19.68-3.77-29.58c2.58-15.34,9.17-29.7,17.01-43.0099
			c2.95-4.91,6.09-9.7,9.41-14.36c14.3701-20.2,32.02-38.04,51.57-53.25c17.69-13.44,37.21-25.13,58.81-30.97
			c-1.92-53.44,5.46-106.63,13.11-159.39c5.17-35.44,10.64-70.87,13.84-106.54c-26.7,16.72-52.65,34.77-76.57,55.33
			c-11.73,10.1801-23.13,20.78-33.43,32.42c-19.36,21.72-34.72,46.79-46.69,73.26c-7.19,15.55-13.76,31.36-20.49,47.11
			c-4.78,10.78-11.03,21.45-11.58,33.52c-0.24,11.71,5.18,22.55,10.87,32.45c3.86,7.29,9.6201,14.08,10.39,22.58
			c0.52,10.05-9.06,18.13-18.54,18.95c-5.85,0.15-10.57-4.09-14.06-8.34c-2.44-3.02-4.58-6.27-6.5-9.64
			c-0.85,4.33-2.14,9.03-5.72,11.94c-2.13,1.72-5.32,2.86-7.86,1.35c-3.62-2.11-5.2-6.31-6.61-10.04
			c-1.96,4.38-4.19,8.97-8.26,11.78c-3.41,2.39-8.34,3.37-12.01,1.03c-3.41-2.36-4.72-6.57-5.58-10.41
			c-3.39,4.64-7.15,9.27-12.4,11.88c-7.36,4-16.71,3.4-23.85-0.81c-1.17-0.65-0.97-2.45-0.36-3.41
			c41.1-65.23,71.99-136.57,116.99-199.38c19.2-27.09,41.58-51.75,65.21-75c34.28-33.88,70.7-65.62,103.19-101.28
			c-26.79-14.9-52.14-32.96-72.84-55.72c-14.78-16.05-27.19-34.37-35.89-54.4c-3.9,0.2-7.81,0.32-11.71,0.54
			c2.56,7.42,2.45,15.97-1.43,22.93c-3.44,6.57-10.41,11.37-17.93,11.35c-7.63,0.35-14.85-2.79-21.23-6.67
			c1.9901,5.56,3.3,12.27-0.05,17.59c-4.1,6-12.7,8.06-19.24,5.07c-11.38,31.85-22.73,63.72-34.79,95.32
			c-13.37,35.01-24.96,70.87-42.46,104.12c-9.46,17.99-20.47,35.64-35.9,49.15c-2.18,1.77-4.1899,4.1-7.09,4.66
			c-20.69-22.84-34.98-52.31-36.38-83.39c-1.79-34.13,10.51-67.32,27.43-96.43c19.93-34.13,46.03-64.17,73.68-92.23
			c-4.3-5.91-6.1-14.14-2.71-20.9c4.02-8.19,12.5699-12.84,21-15.36c-6.06-4.11-11.69-9.35-14.61-16.19
			c-3.13-7.2-3.14-16.01,1.05-22.79c3.8199-5.98,10.61-10.73,17.98-9.93c8.18,0.76,14.78,6.18,20.69,11.4
			c3.09-16.12,11.05-30.82,20.3-44.19c18.27-26.78,41.01-50,62.84-73.82c20.69-22.52,41.72-44.97,65.9-63.82
			c24.36-18.98,52.09-33.19,80.73-44.51c33.28-13.36,67.58-24.57,102.93-30.88c12.08-2.12,24.34-3.36,36.6-3.25
			c8.53,0.11,17.34,1.45,24.72,5.96c14.02-7.84,30.75-6.17,46.13-4.88c30,3.52,59.24,11.8,87.75,21.58
			c31.55,11.31,63.27,23.31,91.48,41.72c28.8401,19.13,53.39,43.81,76.88,69.03c20.26,22.22,41.64,43.52,60.02,67.37
			c10.6,14,20.5801,28.75,26.9301,45.21c0.73,0.59,1.45-0.92,2.12-1.24c5.61-5.47,16.27-6.69,21.6-0.23
			c4.0699,5.12,4.85,12,5.02,18.33c0.13,5.89-0.54,11.77-1.55,17.57c7.5901,0.56,15.28,2.55,21.5,7.07
			c9.15,6.58,14.25,18.34,12.8101,29.52c-0.64,4.92-2.79,9.62-6.04,13.37c23.76,23.6,46.4401,48.55,65.02,76.5
			c16.9399,25.64,31.2,53.8,36.61,84.3c3.41,19.15,2.51,39.09-3.1,57.73c-3.6801,12.62-9.48,24.53-16.4,35.68
			C1735.61,635.76,1760.28,655.81,1786.15,674.26z M1771.65,682.56c2.8-0.87,6.25-2.04,7.83-4.52
			c-24.76-18.02-48.63-37.23-72.37-56.58c-3.58,5-7.3099,9.9-11.4,14.5c-1.0499,1.25-3.1399,1.65-4.2999,0.34
			c-20.55-16.24-33.26-39.79-44.78-62.77c-21.54-16.3199-43.9299-31.62-67.45-44.97c-60.12-34.07-127.11-52.93-189.8301-81.31
			c10.28,13.6,15.8301,30.02,19.61,46.46c14.1801,2.5,28.26,5.53,42.26,8.86c32.9701,8.13,65.8,18.03,96.1001,33.61
			c12.74,6.57,24.7599,14.48,36.0399,23.3c23.65,18.28,44.54,39.74,65.74,60.71c7.63,7.3,16.04,14.12,21.51,23.31
			c3.4301,5.66,5,12.22,5.65,18.76c0.85,10.61-0.79,21.2-2.5,31.65c-0.59,4.65-1.2,9.66,0.7,14.1c1.7201,4.3,6.77,5.68,10.9701,6.04
			c3.97,0.35,7.77-2.19,9.25-5.84c2.98-7.17,3.8099-14.9901,5.1699-22.57c0.51-1.93,2.61-4.35,4.76-3.38
			c3.3201,4.99,4.92,11.4,10,15.06c0.86,0.61,2.73,1.4,3.1-0.16c1.4401-5.7599-0.13-11.71-0.5699-17.5c0.3-1.8,1.66-3.3,3.3199-4
			c1.9-0.35,2.5,1.91,3.38,3.13c3.42,5.65,8.02,11.51,14.77,13.11c1.9301,0.67,4.54-0.02,5.05-2.2401c1-5.15-1.25-10.16-2.9501-14.9
			c-1.0599-2.19,0.7101-4.99,2.9901-5.45c1.97-0.15,2.7599,2.03,4,3.18C1753.52,679.18,1762.47,684.66,1771.65,682.56z
			 M1720.49,583.88c6.59-20.07,7.24-41.85,3.11-62.51c-5.7-28.67-19.39-55.09-35.59-79.18c-18.74-27.65-41.13-52.63-64.6899-76.24
			c-9.89,5.03-21.75,1.41-30.4601-4.43c1.74,5.19,3.0701,11.14,0.7001,16.35c-2.01,4.54-6.88,6.83-11.5,7.76
			c2.2,6.11,4.4099,12.22,6.6,18.33c11.48,32.72,23.87,65.1,35.98,97.58c12.0699,32.95,24.37,66.14,42.76,96.21
			c7.46,11.9,16.09,23.35,27.16,32.14C1705.8101,616.25,1715.11,600.8,1720.49,583.88z M1629.22,348.96
			c0.9401-7.6-1.7999-15.47-7.1499-20.92c-6.0801-6.3-14.7001-9.65-23.3101-10.43c4.8,11.53,1.0699,25.94-9.15,33.25
			c5.92,4.75,12.4401,9.22,19.98,10.89c4.67,0.92,10.02,0.87,13.9701-2.14C1626.96,357.16,1628.85,353.06,1629.22,348.96z
			 M1640.86,560.47c-11.47-25.86-20.48-52.71-30.61-79.11c-12.22-31.94-23.63-64.17-35.14-96.36
			c-9.1-3.84-14.23-12.98-17.9299-21.62c-3.7201,5.54-9.02,10.57-15.8201,11.78c-13.83,2.76-28.4199-9.59-27.7899-23.73
			c0.36-7.77,6.1-13.98,12.4099-17.87c-14.7799,0.7-29.62,0.25-44.37-0.95c-6.72,15.92-15.9399,30.74-26.75,44.2
			c-19.6,24.51-44.53,44.25-71.28,60.42c70.0801,32.97,145.8701,53.48,212.6201,93.48
			C1611.5601,539.88,1626.3101,550.06,1640.86,560.47z M1595.25,311.48c1.36-7.42,2.46-15.16,0.53-22.58
			c-1.1-4.21-3.12-8.66-7.11-10.83c-4.49-2.01-9.88,0.43-12.41,4.39c-3.67,5.5-4.64,12.32-5,18.8
			C1580.39,300.2,1589.6,304.3,1595.25,311.48z M1584.65,349.06c10.52-5.46,15.08-19.5,10.0599-30.19
			c-4.1-9.97-15.96-16.03-26.3999-12.78c-2.9501,0.87-5.7001,2.38-8.05,4.36c-9.3,7.48-11.01,22.28-3.9,31.81
			C1562.37,351.16,1575.26,354.45,1584.65,349.06z M1587.02,378.04c2.53-1.92,2.74-5.51,2.11-8.37
			c-1.22-5.44-4.1-10.31-7.0599-14.95c-4.67,1.16-9.64,1.47-14.3201,0.23c-11.1-2.83-19.4399-13.49-19.8199-24.9
			c-0.8101,1.31-1.64,2.9-3.3501,3.08c-5.4399,1.13-11,2.14-16,4.68c-4.72,2.2-9.0199,6.5-9.1699,11.99
			c-0.51,8.96,7,16.5,15.09,19.01c6.72,2.22,14.16-1.2,17.84-7.03c2.2301-2.59,2.5-6.84,5.89-8.32c1.12-0.7,2.37,0.2,2.63,1.36
			c2.72,7.97,6.27,16.12,12.7001,21.81C1577.11,379.91,1582.9501,380.98,1587.02,378.04z M1566.22,296.9
			c0.66-3.89,1.6801-7.7,2.9501-11.43c-1.36-6.16-4.3201-11.87-7.1-17.5c-8.8-17.02-20.8401-32.08-33.28-46.55
			c-10.0801-11.61-20.28-23.1-30.53-34.55c-20.5599-22.66-41.6-45.04-65-64.83c-23.9301-20.03-51.08-36.08-80.01-47.74
			c-21.58-9.05-43.61-17.04-66.09-23.5c-25.28-7.29-51.2001-13.19-77.59-13.93c-8.7101-0.01-17.91,1.08-25.27,6.14
			c-0.54,0.43-1.0701,0.59-1.6,0.59c-1.64,0-3.2101-1.66-4.7401-2.28c-10.7999-5.42-23.36-5.06-35.09-3.97
			c-21.96,2.47-43.64,7.16-64.83,13.42c-31.15,9.24-61.78,20.44-91.01,34.69c-30.01,14.71-56.24,36.05-79.82,59.54
			c-23.31,23.62-46.09,47.81-67.6,73.1c-9.95,11.85-19.97,23.7-28.41,36.69c-7.45,11.67-13.87,24.43-15.72,38.3l-0.72-0.28
			c0.24,1.15,0.25,2.32,0.18,3.51c1.62-6.71,3.07-13.86,7.85-19.16c4.2599-5.19,11.75-7.4,18.12-5.29
			c4.98,1.75,7.69,6.85,8.81,11.72c2.08,9.11,1.17,18.59-0.32,27.72c6.14,0.46,12.29,1.84,17.76,4.76
			c5.17,2.59,9.16,6.94,12.4,11.62c45.75-0.73,91.41-9.38,134.23-25.53c31.88-12.16,62.1799-28.82,88.7-50.36
			c13.02-10.89,23.97-23.98,34.16-37.47c24.79-33.35,48.41-68.11,64.16-106.77c0.5299-1.24,2.25-2.99,3.6899-2.99
			c0.59,0,1.13,0.3,1.53,1.04c12.83,31.45,30.97,60.35,50.2999,88.15c12.03,17.14,24.9401,33.73,39.66,48.65
			c13.3301,13.7,29.0701,24.85,45.6,34.36c63.8501,36.2,138.05,54.34,211.42,50.53c-3.09-3.39-6.85-6.21-9.1801-10.25
			c-4.34-6.81-5.73-15.69-2.7699-23.3c2.34-5.94,7.35-10.86,13.45-12.81c4.41-1.26,9.22-0.61,13.37,1.29
			C1555.15,285.45,1560.9301,291.11,1566.22,296.9z M1563.55,303.49c-5.17-6.68-11.7001-12.73-19.86-15.43
			c-4.14-1.35-9.02-1.8-12.8601,0.62c-4.21,2.64-5.97,7.91-5.6499,12.68c0.4099,7.09,4.61,13.37,9.6899,18.07
			c3.79,3.63,8.47,6.04,12.99,8.63C1547.88,317.76,1554.13,307.75,1563.55,303.49z M1482.9401,939.03
			c3.2-8.2599,2.58-17.41,0.8099-25.92c-2.28-10.59-6.48-20.69-11.52-30.24c-13.89-25.86-33.62-48.29-55.96-67.19
			c-0.4,9.02-4.16,17.98-10.98,24c-0.9401,0.8-2.3201,0.9-3.3301,0.22c-7.1399-4.14-12.95-10.79-15.33-18.76
			c-2.53-8.48-1.67-17.63,0.6901-26.04c-2.4-1.54-4.87-2.95-7.41-4.23c0.48-4.04-3.27-6.6-3.96-10.38
			c-51.04,0.85-102.0601-0.71-153.04-3.08c-85.86-3.79-171.92-8.93-257.85-3.93c0,1.61,0,3.24-0.01,4.88
			c-22.64,5.16-42.99,17.36-61.3,31.29c-24.03,18.77-45.18,41.59-60.57,68.0099c-7.92,14-14.64,29.22-15.77,45.46
			c-0.42,7.89,0.9,16.45,6.16,22.67c4.33,5.23,10.96,8.02,17.6,8.79c9.22,1.13,18.53-0.65,27.34-3.31
			c16.3-5.03,31.26-13.56,45.25-23.19c-0.28,13.99,0.56,28.18,4.48,41.68c2.13,7.04,5.16,13.96,9.97,19.61
			c3.95,4.64,9.45,8.17,15.59,8.89c6.28,0.88,12.61-1.03,18.16-3.86c8.4-4.38,15.45-10.91,21.7-17.94
			c8.93-9.97,15.74-21.55,22.35-33.11c4.21,17.52,9.75,35.7401,22.37,49.18c5.28,5.51,12.5,9.78,20.35,9.5601
			c7.98-0.14,15.13-4.6201,20.76-9.94c9.11-8.8,15.22-20.08,20.35-31.56c0.3501-0.76,0.6801-1.53,1.02-2.29
			c0.17,0.01,0.51,0.03,0.6901,0.04c3.95,11.58,8.73,23.24,16.9199,32.53c4.99,5.69,11.6901,10.46,19.4301,11.14
			c7.76,0.74,15.23-2.93,20.99-7.89c8.97-7.72,15.27-18.05,20.3199-28.64c7.67-16.38,12.3201-34.04,15.2001-51.85
			c1.77-0.04,3.5499-0.04,5.34-0.03c3.21,19.96,8.66,39.77,18.13,57.71c5.79,10.59,13.03,21.07,23.6901,27.23
			c5.98,3.47,13.4199,4.66,20.0299,2.34c8.1901-2.82,14.3401-9.45,19.05-16.47c8.17-12.41,12.51-26.83,15.88-41.16
			c6.51,11.6,13.35,23.13,22.24,33.11c7.42,8.28,15.96,16.13,26.53,20.12c6.72,2.63,14.6699,2.86,21.12-0.67
			c7.1599-3.83,11.84-10.91,15.02-18.17c6.5699-15.58,7.5499-32.79,7.2999-49.49c16.77,11.2599,34.85,21.54,54.87,25.53
			c8.42,1.61,17.42,2.06,25.5701-1.02C1475.4401,950.36,1480.58,945.27,1482.9401,939.03z M1423.3,403.56
			c22.58-19.7,42.0399-43.63,53.9299-71.3c-43.4-4.3-86.3199-14.95-126.11-32.95c-17.59-7.85-34.75-16.82-50.66-27.73
			c0.3401,6.4-0.5399,13.05-3.73,18.7c-1.6799,2.89-4.08,5.62-7.38,6.62c-3.71,1.4-7.8099-0.56-10.2799-3.39
			c-4.26-4.89-5.8201-11.55-6.1101-17.89c-0.1899-7.25,1.3501-14.96,6.16-20.62c-20.7999-18.69-37.1799-41.58-53.09-64.4
			c-16.38-23.78-31.51-48.58-42.85-75.19c-3.5801,6.91-6.5901,14.13-10.3101,20.98c-9.3099,17.95-20.08,35.09-31.47,51.78
			c-17.08,25-35.4,49.58-58.3201,69.58c4.8601,8.57,5.3201,19.3,2.14,28.53c-1.62,4.42-4.4399,9.04-9.14,10.6
			c-3.71,1.42-7.83-0.49-10.2899-3.34c-4.51-5.03-5.88-12-6.23-18.54c-20.8501,13.23-43.2001,23.98-66.23,32.84
			c-35.15,13.39-72.2,21.84-109.7,24.81c-1.77,0.16-3.59,0.14-5.3,0.7c10.33,22.65,25.23,43.07,43.06,60.41
			c22.03,21.58,48.07,38.81,75.74,52.3c27.24,13.24,56.17,22.9,85.74,29.36c50.27,10.9,102.41,12.88,153.41,6.28
			c35.5-4.64,70.52-13.59,103.58-27.39C1369.99,441.71,1398.6,425.03,1423.3,403.56z M1458.67,828.09
			c-4.28-14.84-11.73-28.98-22.62-40.04c-4.6901,4.73-10.9301,7.79-17.54,8.63c6.9301,7.26,13.8101,14.6,21.46,21.12
			C1445.4501,822.4,1451.67,826.32,1458.67,828.09z M1433.83,782.35c3.1901-5.03,2.41-11.54-0.1399-16.65
			c-5.9301-11.8-17.9801-20.03-30.9401-22.05c-0.3099,0.12-0.9299,0.37-1.24,0.5c-6.87,4.7-13.34,10.41-17.52,17.71
			c-2.9,5.07-4.22,11.5-1.78,17.02c2.05,4.93,6.7001,8.22,11.55,10.06c7.91,2.93,16.62,3.22,24.9,1.97
			C1424.46,789.98,1430.66,787.61,1433.83,782.35z M1407.27,628.05c2.77-23.17,4.77-46.54,3.5599-69.89
			c-1.1699-19.89-3.2999-39.8-7.8899-59.22c-3.17-12.87-6.8301-25.77-13.0901-37.51c-4.01-7.32-9.25-14.42-16.71-18.49
			c-26.48,14.56-55.05,24.98-84.15,32.89c-25.0399,19.43-50.4,39.15-79.53,52.14c-17.36,7.79-36.0499,12.4-54.9099,14.57
			c19.2799,19.5,42.4099,34.46,64.9199,49.87c37.89,25.8,76.01,51.55,110.49,81.88c23.76,20.7,46.0801,43.67,62.2001,70.94
			c-0.42-4.04-0.28-8.12-0.11-12.16c1.27-18.61,5.5599-36.81,8.83-55.13C1403.46,661.37,1405.14,644.68,1407.27,628.05z
			 M1410.46,818.87c0.7101-7.23-0.6699-14.48-2.58-21.44c-5.23,0.26-10.3-1.11-15.4299-1.76c-1.51,7.09-2.4501,14.59-0.26,21.64
			c1.8899,6.71,6.62,12.3,12.3199,16.17C1407.86,829.32,1409.96,824.19,1410.46,818.87z M1375.17,773.89
			c0.5399-9.04,5.4299-17.17,11.52-23.61c-6.52-11.47-14.42-22.12-22.9601-32.15c-21.15-24.53-46.1699-45.35-71.72-65.12
			c-26.4-20.25-54.03-38.81-81.47-57.6c-13.6-9.39-27.4401-18.46-40.34-28.8c-14.53-11.51-27.8201-24.62-39.0901-39.35
			c-11.27-14.2-21.0399-29.53-31.5-44.28c-35.85-6.49-71.12-17.05-103.9-33.07c-0.3,52.8-8.24,105.13-15.89,157.25
			c-7.78,52.87-15.24,106.1-14.3,159.6801c48.79-2.8701,97.6899-2.57,146.52-0.9301C1199.74,768.81,1287.37,775.31,1375.17,773.89z
			 M1316.3,1285.6c2.47-3.72,0.88-8.5399-1.78-11.6799c-4.28-5.14-10.77-7.4801-16.78-9.92c-1.0599-1.5601,0.64-3.5699,2.17-3.98
			c5.8099-1.79,12.2-3.8101,15.9-8.98c2.0699-2.75,2.38-6.63,0.6899-9.63c-2.26-4.05-6.84-6.15-11.1899-7.0801
			c-7.9801-1.35-16.1001,1.1901-23.0601,4.9801c1.12,10.37-0.17,21.0599,2.99,31.1499c1.9,6.5701,4.62,13.3401,9.92,17.9
			C1301.1901,1293.75,1311.87,1292.3199,1316.3,1285.6z M1289.79,1413.9c0.27-23.35-1.03-46.6801-1.4-70.02
			c-0.04-1.64-0.88-3.11-1.46-4.5699c-7.91,3.8099-13.5,11.0399-17.78,18.48c-7.9301,14.27-12.62,30.1699-14.98,46.26
			c-2.7001,19.5399-2.6801,39.62,1.74,58.9099c1.73,7.4401,3.87,15,8.21,21.39c1.37,1.89,2.99,4.02,5.4401,4.51
			c2.25,0.39,4.1799-1.12,5.6499-2.64c6.0801-6.5599,9.2301-15.28,10.8401-23.96
			C1288.91,1446.3199,1289.66,1430.0699,1289.79,1413.9z M1288.3,1493.99c0.1799-8.41,0.6799-16.83,0.09-25.23
			c-1.75,7.87-6.0601,14.97-11.48,20.85c-2.39,2.39-5.5601,4.8-9.14,4.23c-3.24-0.6799-5.33-3.5299-7.16-6.0499
			c-5.75-8.23-8.36-18.15-10.0599-27.92c-4.6-28.6801-2.35-58.51,6.96-86.04c4.73-13.5499,11.74-27.13,23.7-35.6499
			c-1.09-16.6001-1.46-33.2401-2.6-49.8201c-30.99,0.0601-61.97-0.04-92.96,0.04c-2.79,50.41-3.42,101.0499,1.0699,151.37
			c3.27,36.8199,9.27,73.4399,18.8501,109.1699c7.1899,0.8201,14.34,2.04,21.5299,2.88c12.8301,1.5801,26.4601,1.14,38.24-4.7699
			c7.9301-3.91,14.3-10.8101,17.4701-19.0801C1286.9301,1517.15,1287.85,1505.46,1288.3,1493.99z M1278.4301,1283.4399
			c1.01-1.36,0.08-3.9299,0.2999-5.6799c-30.6599,0-61.3099-0.01-91.97,0.01c-0.02,1.89-0.03,3.78-0.03,5.6799
			C1217.29,1283.54,1247.87,1283.5601,1278.4301,1283.4399z M1277.8101,1262.08c0-1.5499-0.01-3.09-0.03-4.62
			c-29.88,0.05-59.76,0.05-89.64,0c-0.3199,1.48-0.64,2.9601-0.98,4.4701C1217.36,1262.29,1247.59,1261.99,1277.8101,1262.08z
			 M1277.92,1272.91c0-2.26-0.0801-4.5-0.2101-6.73c-30.1899-0.04-60.37,0.0099-90.5499-0.03c-0.2001,2.24-0.36,4.5-0.47,6.76
			C1217.1,1272.86,1247.51,1272.89,1277.92,1272.91z M1277.12,1253.4301c-0.0699-2.3201-0.14-4.63-0.21-6.9301
			c-29.4301,0.01-58.85-0.02-88.27,0.01c-0.23,2.3-0.4399,4.6-0.58,6.9299C1217.75,1253.4,1247.4401,1253.42,1277.12,1253.4301z
			 M1276.38,1238.23c-0.49-15.88-1.42-31.76-2.05-47.64c-2.0199-39.76-3.72-79.5499-6.7-119.25c-1.72-21.58-3.92-43.12-6.1-64.65
			c-9.17,2.33-19.01-0.25-26.52-5.83c-12.05-8.75-19.91-21.95-26.05-35.26c-0.1699,30.6-1.1899,61.2001-3.0599,91.75
			c-1.15,19.41-3.09,38.76-4.88,58.12c-4.01,41.64-8.39,83.23-11.9401,124.9c27.3601,0.1,54.7301-0.01,82.0901,0.05
			C1273.1901,1240.71,1274.88,1239.38,1276.38,1238.23z M1276.09,479.06c-3.8899,0.36-7.6499,1.51-11.48,2.18
			c-50.85,9.91-103.36,10.93-154.59,3.35c11.79,17.82,23.72,35.72,38.24,51.46c1.5601,1.46,4.05,0.1,5.98,0.24
			c13.98-1.54,27.9-4.22,41.1801-8.94C1225.1,516.51,1251.21,498.17,1276.09,479.06z M1167.66,1409.78
			c1.8199-40.75,1.1899-81.6-1.4501-122.3c-30.97,0.04-61.9299-0.02-92.8899,0.03c-0.6901,16.67-1.5801,33.33-2.3601,50
			c6.12,4.4399,11.03,10.35,14.8501,16.87c8.1,13.92,13.24,29.4399,15.95,45.28c3.65,21.25,2.92,43.1599-1.35,64.27
			c-1.74,8.1699-4.35,16.36-9.23,23.23c-1.9701,2.64-4.17,5.58-7.5601,6.36c-3.46,0.74-6.79-1.3101-9.14-3.6801
			c-5.21-5.3199-8.5499-12.1899-10.6899-19.25c-0.64,8.3201,0.1,16.6801,0.12,25.02c0.54,14.14,2.2999,29.29,11.3199,40.8
			c5.91,7.74,15.0801,12.15,24.3401,14.47c15.62,4.34,31.8899,0.42,47.4299-1.9401C1159.22,1503.54,1165.27,1456.67,1167.66,1409.78
			z M1165.6901,1282.67c-0.01-1.79-0.01-3.5601-0.01-5.3201c-30.67,0.02-61.3501-0.03-92.02,0.02c-0.0701,1.74-0.13,3.5-0.1901,5.29
			C1104.21,1282.76,1134.9501,1282.72,1165.6901,1282.67z M1074.08,1272.5601c30.4301-0.0601,60.8601,0.0099,91.29-0.03
			c-0.16-2.14-0.3199-4.26-0.53-6.37c-30.1699,0.01-60.33-0.01-90.49,0.01C1074.2001,1268.29,1074.09,1270.42,1074.08,1272.5601z
			 M1165.22,1262.01c-0.33-1.54-0.63-3.04-0.9199-4.54c-29.89,0.04-59.78,0.04-89.66,0c-0.03,1.52-0.03,3.0601-0.02,4.61
			C1104.8201,1262.04,1135.02,1262.2,1165.22,1262.01z M1163.88,1253.4399c-0.15-2.3199-0.3-4.6299-0.46-6.9199
			c-29.41-0.05-58.8101-0.03-88.2101-0.01c-0.1,2.29-0.22,4.59-0.33,6.89C1104.55,1253.46,1134.21,1253.39,1163.88,1253.4399z
			 M1082.04,1240.4301c26.9299-0.04,53.87-0.01,80.8099-0.02c-4.64-55.5601-11.0699-110.9601-15.63-166.54
			c-1.5299-22.11-2.7799-44.26-3.26-66.43c-7.1699,0.65-14.5399-0.9-20.5299-4.98c-10.9401-7.2-17.53-19.02-22.8501-30.64
			c-2.2799,4.81-5.47,9.15-7.99,13.79c-4.5199,42.1-8.5,84.28-10.84,126.5701c-2.39,41.72-4.1899,83.48-6.1899,125.22
			C1077.66,1238.49,1079.4501,1240.73,1082.04,1240.4301z M1097.61,1457.34c3.05-19.0399,2.9401-38.61-0.65-57.5699
			c-2.7899-15.61-7.72-31.05-16.33-44.46c-4.0599-6.38-9.22-12.3501-16.0699-15.77c-1.2001,3.2899-0.74,6.83-0.9301,10.27
			c-0.4399,14.71-0.95,29.4199-1.23,44.1499c-0.23,19.74-0.34,39.6001,2.46,59.2001c1.5,9.95,3.6901,20.14,9.3201,28.65
			c1.9399,2.85,4.23,6.0099,7.74,6.9399c2.96,0.7,5.28-1.83,6.62-4.12C1093.33,1476.25,1096.02,1466.8101,1097.61,1457.34z
			 M1068.6,1265.65c0.5901-8.59,0.76-17.2001,1.23-25.79c-6.7599-3.52-14.2-6.5499-21.96-6.11c-5.26,0.27-10.66,3.02-13.13,7.8101
			c-1.6799,3.33,0.29,7.0499,2.7001,9.4399c4.8099,4.66,11.09,7.38,17.36,9.49c0,1.8201-1.1901,3.53-2.9701,4.0701
			c-5.8099,2.2599-12.08,4.8099-15.74,10.1299c-2.62,3.7001-1.62,8.9701,1.4601,12.1001c4.96,5.51,14,5.97,19.85,1.6
			C1064.59,1283.16,1067.3,1274.04,1068.6,1265.65z M987.01,502.05c1.55-18.42,2.6-36.92,2.31-55.41c-0.74-0.32-1.48-0.63-2.21-0.95
			c-49.22,54.62-108.75,99.33-154.2599,157.37c-18.4301,23.58-34.54,48.86-49.66,74.65c-27.13,46.4-50.98,94.7-79.5,140.29
			c5.37,2.32,11.87,2.62,17.06-0.34c6.36-3.54,10.2-10.3,12.16-17.1c0.4-2.48,2.98-4.25,5.44-3.47
			c0.87,6.16,0.0699,13.02,3.78,18.42c2.03,2.97,6.25,1.56,8.33-0.61c4.37-4.4301,5.5-10.88,6.43-16.79c0.21-2.27,2.62-4.82,5-3.97
			c1.65,2.99,1.49,6.64,2.67,9.83c1.21,3.64,2.62,8.26,6.73,9.48c3.8199-5,3.04-11.76,4.42-17.57c0.74-1.87,3.84-4.17,5.17-1.63
			c4.05,6.61,7.62,13.76,13.43,19.07c2.91,2.68,7,4.73,11.02,3.51c2.94-1.05,5.88-2.93,7.26-5.82c1.63-4.34-0.48-8.86-2.45-12.69
			c-4.93-8.97-10.43-17.69-14.23-27.24c-3.23-8.07-5.12-16.94-3.6-25.6c0.98-6.14,4.16-11.57,6.47-17.26
			c14.63-33.5099,27.25-68.16,46.69-99.31c16.24-26.02,37.39-48.7,60.77-68.45C931.49,538.79,958.9,519.79,987.01,502.05z
			 M858.03,348.04c0.72-7.21-1.89-14.6-6.87-19.84c-6.1-6.52-14.88-9.97-23.65-10.79c4.85,11.51,1.06,25.82-9.05,33.22
			c4.95,4.3,10.61,7.93,16.84,10.09c5.21,1.71,11.36,2.26,16.21-0.76C855.61,357.49,857.83,352.72,858.03,348.04z M823.95,311.18
			c1.54-7.12,2.26-14.59,0.76-21.77c-1.09-4.55-3.2-9.47-7.59-11.67c-4.37-1.68-9.45,0.57-11.96,4.34
			c-3.82,5.55-4.68,12.46-5.23,19.02C809.06,299.93,818.22,304.11,823.95,311.18z M809.51,350.52c11.9-3.49,18.79-17.44,14.98-29.11
			c-3.12-11.58-16.43-19.4-27.96-15.32c-12.32,3.67-19.12,18.62-14.36,30.44C785.85,347.36,798.5,354.25,809.51,350.52z
			 M813.82,378.9c3.13-0.92,4.79-4.37,4.33-7.46c-0.74-6.23-3.96-11.88-7.5-16.93c-10.77,3.45-23.26-1.23-29.34-10.69
			c-2.97-4.36-4.54-9.59-4.67-14.85c-0.13-4.99,1.04-10.01,3.52-14.36c2.69-4.97,7.13-8.78,12.07-11.43
			c-5.59-7.13-12.8101-13.65-21.82-15.88c-4.4-1.19-9.66-0.61-12.9,2.89c-4.09,4.43-4.43,11.24-2.41,16.7
			c2.91,7.93,9.36,14.07,16.5699,18.18c1.58,0.98,3.38,1.61,4.77,2.86c0.11,0.34,0.16,0.69,0.16,1.04c0,2-1.66,3.95-3.7,4.09
			c-6.07,1.19-12.31,2.44-17.65,5.73c-2.89,1.72-5.44,4.3-6.44,7.58c-1.96,5.69,0.43,12.11,4.64,16.16
			c4.31,4.45,10.57,7.68,16.91,6.49c5.59-0.89,9.8701-5.32,12.39-10.16c1.13-2.1,1.92-4.82,4.42-5.66c1.2-0.64,2.27,0.51,2.5,1.62
			c2.5,7.34,5.77,14.68,11.21,20.33C804.12,378.51,809.22,380.91,813.82,378.9z M797.75,381.47c-0.29-0.94-1.28-1.44-1.85-2.17
			c-4.49-4.56-7.53-10.31-9.94-16.16c-3.1,4.49-6.99,8.74-12.18,10.77c-8.07,3.27-17.61,0.7-23.8-5.16
			c-14.1201,13.88-27.52,28.52-40.02,43.88c-19.19,23.77-36.25,49.62-47.68,78.07c-7.87,19.76-12.52,41.13-10.95,62.47
			c1.86,28.47,14.97,55.19,33.17,76.78c5.47-3.97,9.99-9.13,14.36-14.26c11.2401-13.62,19.56-29.33,27.15-45.19
			c15.51-32.57,26.64-66.95,39.55-100.59C776.76,440.61,787.26,411.04,797.75,381.47z"/>
		<path fill="#FFFFFF" d="M1779.48,678.04c-1.58,2.48-5.0299,3.65-7.83,4.52c-9.1801,2.1-18.13-3.38-23.95-10.07
			c-1.2401-1.15-2.03-3.33-4-3.18c-2.28,0.46-4.05,3.26-2.9901,5.45c1.7001,4.74,3.9501,9.75,2.9501,14.9
			c-0.51,2.22-3.12,2.91-5.05,2.2401c-6.75-1.6-11.35-7.46-14.77-13.11c-0.88-1.22-1.48-3.48-3.38-3.13
			c-1.6599,0.7-3.0199,2.2-3.3199,4c0.4399,5.79,2.01,11.7401,0.5699,17.5c-0.37,1.56-2.24,0.77-3.1,0.16
			c-5.08-3.66-6.6799-10.07-10-15.06c-2.15-0.97-4.25,1.45-4.76,3.38c-1.36,7.58-2.1899,15.4-5.1699,22.57
			c-1.48,3.65-5.28,6.19-9.25,5.84c-4.2001-0.36-9.25-1.74-10.9701-6.04c-1.8999-4.44-1.2899-9.45-0.7-14.1
			c1.71-10.45,3.35-21.04,2.5-31.65c-0.65-6.54-2.22-13.1-5.65-18.76c-5.47-9.19-13.88-16.01-21.51-23.31
			c-21.2-20.97-42.09-42.43-65.74-60.71c-11.28-8.82-23.2999-16.73-36.0399-23.3c-30.3-15.58-63.13-25.48-96.1001-33.61
			c-14-3.33-28.08-6.36-42.26-8.86c-3.7799-16.44-9.33-32.86-19.61-46.46c62.7201,28.38,129.7101,47.24,189.8301,81.31
			c23.52,13.35,45.9099,28.65,67.45,44.97c11.52,22.98,24.23,46.53,44.78,62.77c1.16,1.31,3.25,0.91,4.2999-0.34
			c4.0901-4.6,7.8201-9.5,11.4-14.5C1730.85,640.81,1754.72,660.02,1779.48,678.04z"/>
		<path fill="#FFF5C8" d="M1723.6,521.37c4.13,20.66,3.48,42.44-3.11,62.51c-5.38,16.92-14.6799,32.37-25.9299,46.01
			c-11.0701-8.79-19.7001-20.24-27.16-32.14c-18.39-30.07-30.6901-63.26-42.76-96.21c-12.11-32.48-24.5-64.86-35.98-97.58
			c-2.1901-6.11-4.4-12.22-6.6-18.33c4.62-0.93,9.49-3.22,11.5-7.76c2.37-5.21,1.0399-11.16-0.7001-16.35
			c8.7101,5.84,20.5701,9.46,30.4601,4.43c23.5599,23.61,45.95,48.59,64.6899,76.24C1704.21,466.28,1717.9,492.7,1723.6,521.37z"/>
		<path fill="#F1AAB0" d="M1622.0701,328.04c5.35,5.45,8.09,13.32,7.1499,20.92c-0.37,4.1-2.26,8.2-5.6599,10.65
			c-3.9501,3.01-9.3,3.06-13.9701,2.14c-7.5399-1.67-14.0599-6.14-19.98-10.89c10.22-7.31,13.9501-21.72,9.15-33.25
			C1607.37,318.39,1615.99,321.74,1622.0701,328.04z"/>
		<path fill="#FFFFFF" d="M1610.25,481.36c10.13,26.4,19.14,53.25,30.61,79.11c-14.5499-10.41-29.2999-20.59-44.6599-29.7599
			c-66.75-40-142.54-60.51-212.6201-93.48c26.75-16.17,51.6801-35.91,71.28-60.42c10.8101-13.46,20.03-28.28,26.75-44.2
			c14.75,1.2,29.5901,1.65,44.37,0.95c-6.3099,3.89-12.0499,10.1-12.4099,17.87c-0.63,14.14,13.96,26.49,27.7899,23.73
			c6.8-1.21,12.1-6.24,15.8201-11.78c3.7,8.64,8.83,17.78,17.9299,21.62C1586.62,417.19,1598.03,449.42,1610.25,481.36z"/>
		<path fill="#F1AAB0" d="M1595.78,288.9c1.9299,7.42,0.83,15.16-0.53,22.58c-5.65-7.18-14.86-11.28-23.99-10.22
			c0.36-6.48,1.33-13.3,5-18.8c2.53-3.96,7.92-6.4,12.41-4.39C1592.66,280.24,1594.6801,284.69,1595.78,288.9z"/>
		<path fill="#FFFFFF" d="M1594.71,318.87c5.02,10.69,0.4601,24.73-10.0599,30.19c-9.39,5.39-22.28,2.1-28.29-6.8
			c-7.11-9.53-5.4-24.33,3.9-31.81c2.35-1.98,5.1-3.49,8.05-4.36C1578.75,302.84,1590.61,308.9,1594.71,318.87z"/>
		<path fill="#F1AAB0" d="M1589.13,369.67c0.63,2.86,0.42,6.45-2.11,8.37c-4.0699,2.94-9.91,1.87-13.46-1.41
			c-6.4301-5.69-9.9801-13.84-12.7001-21.81c-0.26-1.16-1.51-2.06-2.63-1.36c-3.39,1.48-3.6599,5.73-5.89,8.32
			c-3.6799,5.83-11.12,9.25-17.84,7.03c-8.09-2.51-15.6-10.05-15.09-19.01c0.15-5.49,4.45-9.79,9.1699-11.99
			c5-2.54,10.5601-3.55,16-4.68c1.7101-0.18,2.54-1.77,3.3501-3.08c0.38,11.41,8.72,22.07,19.8199,24.9
			c4.6801,1.24,9.65,0.93,14.3201-0.23C1585.03,359.36,1587.91,364.23,1589.13,369.67z"/>
		<path fill="#FFF5C8" d="M1569.17,285.47c-1.27,3.73-2.29,7.54-2.9501,11.43c-5.2899-5.79-11.0699-11.45-18.34-14.67
			c-4.15-1.9-8.96-2.55-13.37-1.29c-6.1,1.95-11.11,6.87-13.45,12.81c-2.9601,7.61-1.5701,16.49,2.7699,23.3
			c2.3301,4.04,6.0901,6.86,9.1801,10.25c-73.37,3.81-147.5699-14.33-211.42-50.53c-16.5299-9.51-32.2699-20.66-45.6-34.36
			c-14.72-14.92-27.63-31.51-39.66-48.65c-19.33-27.8-37.47-56.7-50.2999-88.15c-0.4-0.74-0.9401-1.04-1.53-1.04l-1.7999-60.97
			c0.5299,0,1.0599-0.16,1.6-0.59c7.36-5.06,16.5599-6.15,25.27-6.14c26.3899,0.74,52.3099,6.64,77.59,13.93
			c22.48,6.46,44.51,14.45,66.09,23.5c28.9301,11.66,56.08,27.71,80.01,47.74c23.4,19.79,44.4401,42.17,65,64.83
			c10.25,11.45,20.45,22.94,30.53,34.55c12.4399,14.47,24.48,29.53,33.28,46.55C1564.85,273.6,1567.8101,279.31,1569.17,285.47z"/>
		<path fill="#F1AAB0" d="M1543.6901,288.06c8.1599,2.7,14.6899,8.75,19.86,15.43c-9.42,4.26-15.67,14.27-15.6901,24.57
			c-4.52-2.59-9.2-5-12.99-8.63c-5.08-4.7-9.28-10.98-9.6899-18.07c-0.3201-4.77,1.4399-10.04,5.6499-12.68
			C1534.67,286.26,1539.55,286.71,1543.6901,288.06z"/>
		<path fill="#F0AAAF" d="M1483.75,913.11c1.77,8.51,2.39,17.66-0.8099,25.92c-2.3601,6.2401-7.5,11.33-13.76,13.63
			c-8.15,3.08-17.15,2.63-25.5701,1.02c-20.02-3.99-38.1-14.27-54.87-25.53c0.25,16.7-0.73,33.91-7.2999,49.49
			c-3.1801,7.26-7.8601,14.34-15.02,18.17c-6.4501,3.53-14.4,3.3-21.12,0.67c-10.5701-3.99-19.11-11.84-26.53-20.12
			c-8.89-9.98-15.73-21.51-22.24-33.11c-3.37,14.33-7.71,28.75-15.88,41.16c-4.71,7.02-10.86,13.65-19.05,16.47
			c-6.61,2.32-14.0499,1.13-20.0299-2.34c-10.66-6.16-17.9-16.64-23.6901-27.23c-9.47-17.94-14.92-37.75-18.13-57.71
			c-1.79-0.0099-3.5699-0.0099-5.34,0.03c-2.88,17.81-7.53,35.47-15.2001,51.85c-5.0499,10.59-11.35,20.92-20.3199,28.64
			c-5.76,4.96-13.23,8.63-20.99,7.89c-7.74-0.68-14.4401-5.45-19.4301-11.14c-8.1899-9.29-12.97-20.95-16.9199-32.53
			c-0.1801-0.01-0.52-0.03-0.6901-0.04h-0.01c-0.33,0.76-0.6699,1.53-1.01,2.29c-5.13,11.48-11.24,22.7599-20.35,31.56
			c-5.63,5.3199-12.78,9.8-20.76,9.94c-7.85,0.22-15.0699-4.05-20.35-9.5601c-12.62-13.4399-18.16-31.66-22.37-49.18
			c-6.61,11.56-13.42,23.14-22.35,33.11c-6.25,7.03-13.3,13.56-21.7,17.94c-5.55,2.83-11.88,4.74-18.16,3.86
			c-6.14-0.72-11.64-4.25-15.59-8.89c-4.81-5.65-7.84-12.57-9.97-19.61c-3.92-13.5-4.7599-27.69-4.48-41.68
			c-13.99,9.63-28.95,18.16-45.25,23.19c-8.81,2.66-18.12,4.44-27.34,3.31c-6.64-0.77-13.27-3.56-17.6-8.79
			c-5.26-6.22-6.58-14.78-6.16-22.67c1.13-16.24,7.85-31.46,15.77-45.46c15.39-26.42,36.54-49.24,60.57-68.0099
			c18.31-13.9301,38.66-26.13,61.3-31.29c0.01-1.64,0.01-3.27,0.01-4.88c85.93-5,171.9901,0.14,257.85,3.93
			c50.98,2.37,102,3.9301,153.04,3.08c0.6899,3.78,4.4399,6.34,3.96,10.38c2.54,1.28,5.01,2.69,7.41,4.23
			c-2.3601,8.41-3.2201,17.56-0.6901,26.04c2.38,7.97,8.1901,14.62,15.33,18.76c1.01,0.68,2.39,0.58,3.3301-0.22
			c6.8199-6.02,10.58-14.98,10.98-24c22.34,18.9,42.0699,41.33,55.96,67.19C1477.27,892.42,1481.47,902.52,1483.75,913.11z"/>
		<path fill="#FFFFFF" d="M1477.23,332.26c-11.89,27.67-31.35,51.6-53.9299,71.3c-24.7001,21.47-53.3101,38.15-83.4401,50.75
			c-33.0599,13.8-68.08,22.75-103.58,27.39c-51,6.6-103.14,4.62-153.41-6.28c-29.5699-6.46-58.5-16.12-85.74-29.36
			c-27.67-13.49-53.71-30.72-75.74-52.3c-17.83-17.34-32.73-37.76-43.06-60.41c1.71-0.56,3.53-0.54,5.3-0.7
			c37.5-2.97,74.55-11.42,109.7-24.81c23.03-8.86,45.3799-19.61,66.23-32.84c0.35,6.54,1.72,13.51,6.23,18.54
			c2.46,2.85,6.58,4.76,10.2899,3.34c4.7001-1.56,7.52-6.18,9.14-10.6c3.1801-9.23,2.7201-19.96-2.14-28.53
			c22.92-20,41.2401-44.58,58.3201-69.58c11.39-16.69,22.16-33.83,31.47-51.78c3.72-6.85,6.73-14.07,10.3101-20.98
			c11.34,26.61,26.47,51.41,42.85,75.19c15.91,22.82,32.29,45.71,53.09,64.4c-4.8099,5.66-6.35,13.37-6.16,20.62
			c0.29,6.34,1.8501,13,6.1101,17.89c2.47,2.83,6.5699,4.79,10.2799,3.39c3.3-1,5.7001-3.73,7.38-6.62
			c3.1901-5.65,4.0701-12.3,3.73-18.7c15.91,10.91,33.0701,19.88,50.66,27.73C1390.91,317.31,1433.83,327.96,1477.23,332.26z
			 M1336.4401,377.36c0.72-0.97,1.47-2.14,0.97-3.4c-0.1901-1.55-2.5601-1.88-3.55-0.91c-1.51,1.36-2.64,3.08-3.95,4.62
			c-10.96,13.32-23.4301,25.42-37.15,35.89c-30.08,23.15-66.79,38.45-104.9,40.35c-26.4,1.29-53.21-4.75-76.26-17.75
			c-25.24-14.31-44.9399-36.98-58.8199-62.21c-0.48-1.18-1.6901-2.12-2.9501-1.37c-1.8899,0.78-3.75,3.28-2.47,5.26
			c16.47,30.27,41.63,56.77,73.63,70.53c25,10.82,53,13.99,79.92,10.39c22.46-2.99,44.1799-10.58,64.12-21.25
			C1292.63,422.65,1317.05,401.98,1336.4401,377.36z M1200.46,359.76c1.8501-1.06,3.05-4.7,0.6901-5.79
			c-2.63,0.54-4.79,2.38-7.36,3.14c-11.3301,4.4-24.8301,1.97-34.02-5.95c-1.42-1.05-3.01-3.3-4.96-1.92
			c-1.7001,0.97-3.0901,3.52-1.67,5.25c5.39,5.21,12.3,8.87,19.6899,10.22C1182.23,366.51,1192.22,364.58,1200.46,359.76z"/>
		<path fill="#F0AAAF" d="M1436.05,788.05c10.89,11.06,18.34,25.2,22.62,40.04c-7-1.77-13.22-5.69-18.7001-10.29
			c-7.6499-6.52-14.5299-13.86-21.46-21.12C1425.12,795.84,1431.36,792.78,1436.05,788.05z"/>
		<path fill="#F0AAAF" d="M1433.6901,765.7c2.5499,5.11,3.33,11.62,0.1399,16.65c-3.1699,5.26-9.37,7.63-15.1699,8.56
			c-8.28,1.25-16.99,0.96-24.9-1.97c-4.85-1.84-9.5-5.13-11.55-10.06c-2.4399-5.52-1.12-11.95,1.78-17.02
			c4.1801-7.3,10.65-13.01,17.52-17.71c0.3101-0.13,0.9301-0.38,1.24-0.5C1415.71,745.67,1427.76,753.9,1433.6901,765.7z"/>
		<path fill="#F0AAAF" d="M1410.83,558.16c1.2101,23.35-0.7899,46.72-3.5599,69.89c-2.13,16.63-3.8101,33.32-6.39,49.89
			c-3.27,18.32-7.5599,36.52-8.83,55.13c-0.17,4.04-0.3101,8.12,0.11,12.16c-16.12-27.27-38.4401-50.24-62.2001-70.94
			c-34.48-30.33-72.6-56.08-110.49-81.88c-22.51-15.41-45.64-30.37-64.9199-49.87c18.86-2.17,37.5499-6.78,54.9099-14.57
			c29.13-12.99,54.4901-32.71,79.53-52.14c29.1-7.91,57.67-18.33,84.15-32.89c7.46,4.07,12.7,11.17,16.71,18.49
			c6.26,11.74,9.92,24.64,13.0901,37.51C1407.53,518.36,1409.66,538.27,1410.83,558.16z"/>
		<path fill="#F0AAAF" d="M1407.88,797.43c1.91,6.96,3.29,14.21,2.58,21.44c-0.5,5.32-2.6,10.45-5.95,14.61
			c-5.7-3.87-10.4301-9.46-12.3199-16.17c-2.1901-7.05-1.25-14.55,0.26-21.64C1397.58,796.32,1402.65,797.69,1407.88,797.43z"/>
		<path fill="#F0AAAF" d="M1386.6901,750.28c-6.0901,6.44-10.9801,14.57-11.52,23.61c-87.8,1.42-175.4301-5.08-263.13-7.98
			c-48.8301-1.64-97.73-1.94-146.52,0.9301c-0.94-53.58,6.52-106.8101,14.3-159.6801c7.65-52.12,15.59-104.45,15.89-157.25
			c32.78,16.02,68.05,26.58,103.9,33.07c10.4601,14.75,20.23,30.08,31.5,44.28c11.27,14.73,24.5601,27.84,39.0901,39.35
			c12.8999,10.34,26.74,19.41,40.34,28.8c27.4399,18.79,55.0699,37.35,81.47,57.6c25.55,19.77,50.5699,40.59,71.72,65.12
			C1372.27,728.16,1380.17,738.81,1386.6901,750.28z"/>
		<path fill="#171717" d="M1337.41,373.96c0.5,1.26-0.25,2.43-0.97,3.4c-19.39,24.62-43.8101,45.29-71.41,60.15
			c-19.9401,10.67-41.66,18.26-64.12,21.25c-26.92,3.6-54.92,0.43-79.92-10.39c-32-13.76-57.16-40.26-73.63-70.53
			c-1.28-1.98,0.5801-4.48,2.47-5.26c1.26-0.75,2.4701,0.19,2.9501,1.37c13.88,25.23,33.58,47.9,58.8199,62.21
			c23.05,13,49.86,19.04,76.26,17.75c38.11-1.9,74.8201-17.2,104.9-40.35c13.72-10.47,26.1901-22.57,37.15-35.89
			c1.3099-1.54,2.4399-3.26,3.95-4.62C1334.85,372.08,1337.22,372.41,1337.41,373.96z"/>
		<path fill="#F0AAAF" d="M1314.52,1273.92c2.66,3.14,4.25,7.96,1.78,11.6799c-4.4301,6.72-15.11,8.15-21.14,2.76
			c-5.3-4.5599-8.02-11.33-9.92-17.9c-3.16-10.09-1.87-20.7799-2.99-31.1499c6.96-3.79,15.08-6.3301,23.0601-4.9801
			c4.35,0.9301,8.9299,3.03,11.1899,7.0801c1.6901,3,1.38,6.88-0.6899,9.63c-3.7001,5.1699-10.0901,7.1899-15.9,8.98
			c-1.53,0.41-3.23,2.4199-2.17,3.98C1303.75,1266.4399,1310.24,1268.78,1314.52,1273.92z"/>
		<path fill="#FFFFFF" d="M1288.39,1343.88c0.37,23.34,1.67,46.67,1.4,70.02c-0.13,16.1699-0.88,32.4199-3.74,48.36
			c-1.61,8.6799-4.76,17.4-10.8401,23.96c-1.47,1.52-3.3999,3.03-5.6499,2.64c-2.4501-0.49-4.0701-2.62-5.4401-4.51
			c-4.34-6.39-6.48-13.95-8.21-21.39c-4.42-19.2899-4.4401-39.37-1.74-58.9099c2.36-16.0901,7.0499-31.99,14.98-46.26
			c4.28-7.4401,9.87-14.67,17.78-18.48C1287.51,1340.77,1288.35,1342.24,1288.39,1343.88z"/>
		<path fill="#F0AAAF" d="M1288.39,1468.76c0.59,8.4,0.09,16.8199-0.09,25.23c-0.4501,11.47-1.37,23.16-5.49,33.98
			c-3.17,8.27-9.54,15.17-17.4701,19.0801c-11.7799,5.9099-25.4099,6.35-38.24,4.7699c-7.1899-0.84-14.34-2.0599-21.5299-2.88
			c-9.5801-35.73-15.5801-72.35-18.8501-109.1699c-4.49-50.3201-3.86-100.96-1.0699-151.37c30.99-0.0801,61.97,0.02,92.96-0.04
			c1.14,16.58,1.51,33.22,2.6,49.8201c-11.96,8.5199-18.97,22.1-23.7,35.6499c-9.3099,27.53-11.5599,57.36-6.96,86.04
			c1.7,9.77,4.3099,19.6901,10.0599,27.92c1.8301,2.52,3.92,5.37,7.16,6.0499c3.58,0.5701,6.75-1.84,9.14-4.23
			C1282.33,1483.73,1286.64,1476.63,1288.39,1468.76z"/>
		<path fill="#FFFFFF" d="M1278.73,1277.76c-0.22,1.75,0.7101,4.3199-0.2999,5.6799c-30.5601,0.1201-61.14,0.1001-91.7001,0.01
			c0-1.8999,0.01-3.7899,0.03-5.6799C1217.42,1277.75,1248.0701,1277.76,1278.73,1277.76z"/>
		<path fill="#FFFFFF" d="M1277.78,1257.46c0.02,1.53,0.03,3.0701,0.03,4.62c-30.2201-0.09-60.4501,0.2101-90.65-0.1499
			c0.34-1.51,0.66-2.9901,0.98-4.4701C1218.02,1257.51,1247.9,1257.51,1277.78,1257.46z"/>
		<path fill="#F0AAAF" d="M1277.71,1266.1801c0.13,2.23,0.2101,4.47,0.2101,6.73c-30.41-0.02-60.8201-0.05-91.23,0
			c0.11-2.26,0.2699-4.52,0.47-6.76C1217.34,1266.1899,1247.52,1266.14,1277.71,1266.1801z"/>
		<path fill="#F0AAAF" d="M1276.91,1246.5c0.0699,2.3,0.14,4.61,0.21,6.9301c-29.6799-0.01-59.37-0.03-89.0599,0.0099
			c0.14-2.33,0.35-4.6299,0.58-6.9299C1218.0601,1246.48,1247.48,1246.51,1276.91,1246.5z"/>
		<path fill="#FFFFFF" d="M1274.33,1190.59c0.63,15.88,1.5601,31.76,2.05,47.64c-1.5,1.15-3.1899,2.48-5.21,2.1901
			c-27.36-0.0601-54.73,0.0499-82.0901-0.05c3.55-41.67,7.9301-83.26,11.9401-124.9c1.79-19.36,3.73-38.71,4.88-58.12
			c1.87-30.5499,2.89-61.15,3.0599-91.75c6.14,13.31,14,26.51,26.05,35.26c7.51,5.58,17.35,8.16,26.52,5.83
			c2.1799,21.53,4.38,43.07,6.1,64.65C1270.61,1111.04,1272.3101,1150.83,1274.33,1190.59z"/>
		<path fill="#FFFFFF" d="M1264.61,481.24c3.8301-0.67,7.5901-1.82,11.48-2.18c-24.88,19.11-50.99,37.45-80.6699,48.29
			c-13.28,4.72-27.2001,7.4-41.1801,8.94c-1.9299-0.14-4.4199,1.22-5.98-0.24c-14.52-15.74-26.45-33.64-38.24-51.46
			C1161.25,492.17,1213.76,491.15,1264.61,481.24z"/>
		<path fill="#171717" d="M1201.15,353.97c2.36,1.09,1.16,4.73-0.6901,5.79c-8.24,4.82-18.23,6.75-27.63,4.95
			c-7.3899-1.35-14.2999-5.01-19.6899-10.22c-1.42-1.73-0.03-4.28,1.67-5.25c1.95-1.38,3.5399,0.87,4.96,1.92
			c9.1899,7.92,22.6899,10.35,34.02,5.95C1196.36,356.35,1198.52,354.51,1201.15,353.97z"/>
		<path fill="#FFF5C8" d="M1182.7001,43.6l1.7999,60.97c-1.4399,0-3.16,1.75-3.6899,2.99c-15.75,38.66-39.37,73.42-64.16,106.77
			c-10.1901,13.49-21.14,26.58-34.16,37.47c-26.52,21.54-56.8199,38.2-88.7,50.36c-42.82,16.15-88.48,24.8-134.23,25.53
			c-3.24-4.68-7.23-9.03-12.4-11.62c-5.47-2.92-11.62-4.3-17.76-4.76c1.49-9.13,2.4-18.61,0.32-27.72
			c-1.12-4.87-3.83-9.97-8.81-11.72c-6.37-2.11-13.86,0.1-18.12,5.29c-4.78,5.3-6.23,12.45-7.85,19.16
			c0.07-1.19,0.06-2.36-0.18-3.51l0.72,0.28c1.85-13.87,8.27-26.63,15.72-38.3c8.44-12.99,18.46-24.84,28.41-36.69
			c21.51-25.29,44.29-49.48,67.6-73.1c23.58-23.49,49.81-44.83,79.82-59.54c29.23-14.25,59.86-25.45,91.01-34.69
			c21.1899-6.26,42.87-10.95,64.83-13.42c11.73-1.09,24.29-1.45,35.09,3.97C1179.49,41.94,1181.0601,43.6,1182.7001,43.6z"/>
		<path fill="#F0AAAF" d="M1166.21,1287.48c2.64,40.7001,3.27,81.55,1.4501,122.3c-2.39,46.89-8.4401,93.76-20.66,139.1599
			c-15.54,2.3601-31.8099,6.28-47.4299,1.9401c-9.26-2.3199-18.4301-6.73-24.3401-14.47c-9.02-11.51-10.7799-26.66-11.3199-40.8
			c-0.02-8.34-0.76-16.7-0.12-25.02c2.14,7.0601,5.48,13.9301,10.6899,19.25c2.35,2.37,5.6801,4.42,9.14,3.6801
			c3.39-0.78,5.59-3.72,7.5601-6.36c4.88-6.87,7.49-15.0601,9.23-23.23c4.27-21.1101,5-43.02,1.35-64.27
			c-2.71-15.8401-7.85-31.36-15.95-45.28c-3.8201-6.52-8.7301-12.4301-14.8501-16.87c0.78-16.67,1.67-33.33,2.3601-50
			C1104.28,1287.46,1135.24,1287.52,1166.21,1287.48z"/>
		<path fill="#FFFFFF" d="M1165.6801,1277.35c0,1.76,0,3.53,0.01,5.3201c-30.74,0.0499-61.4801,0.09-92.2201-0.01
			c0.0601-1.79,0.12-3.55,0.1901-5.29C1104.33,1277.3199,1135.01,1277.37,1165.6801,1277.35z"/>
		<path fill="#F0AAAF" d="M1165.37,1272.53c-30.4299,0.0399-60.86-0.03-91.29,0.03c0.01-2.14,0.1201-4.27,0.27-6.39
			c30.16-0.02,60.3201,0,90.49-0.01C1165.05,1268.27,1165.21,1270.39,1165.37,1272.53z"/>
		<path fill="#FFFFFF" d="M1164.3,1257.47c0.2899,1.5,0.59,3,0.9199,4.54c-30.2,0.1899-60.3999,0.03-90.6,0.0699
			c-0.01-1.5499-0.01-3.09,0.02-4.61C1104.52,1257.51,1134.41,1257.51,1164.3,1257.47z"/>
		<path fill="#F0AAAF" d="M1163.42,1246.52c0.1599,2.29,0.3099,4.6,0.46,6.9199c-29.67-0.0499-59.33,0.02-89-0.0399
			c0.11-2.3,0.23-4.6,0.33-6.89C1104.61,1246.49,1134.01,1246.47,1163.42,1246.52z"/>
		<path fill="#FFFFFF" d="M1162.85,1240.41c-26.9399,0.01-53.88-0.02-80.8099,0.02c-2.59,0.2999-4.38-1.9401-6.48-3.03
			c2-41.74,3.7999-83.5,6.1899-125.22c2.34-42.29,6.3201-84.4701,10.84-126.5701c2.52-4.64,5.7101-8.98,7.99-13.79
			c5.3201,11.62,11.91,23.44,22.8501,30.64c5.99,4.08,13.36,5.63,20.5299,4.98c0.4801,22.17,1.7301,44.32,3.26,66.43
			C1151.78,1129.45,1158.21,1184.85,1162.85,1240.41z"/>
		<path fill="#FFFFFF" d="M1096.96,1399.77c3.5901,18.96,3.7001,38.53,0.65,57.5699c-1.59,9.4701-4.28,18.91-9.0699,27.29
			c-1.34,2.29-3.66,4.8199-6.62,4.12c-3.51-0.9301-5.8-4.09-7.74-6.9399c-5.63-8.51-7.8201-18.7001-9.3201-28.65
			c-2.7999-19.6-2.6899-39.4601-2.46-59.2001c0.28-14.73,0.79-29.4399,1.23-44.1499c0.1901-3.4401-0.27-6.9801,0.9301-10.27
			c6.85,3.4199,12.01,9.39,16.0699,15.77C1089.24,1368.72,1094.17,1384.16,1096.96,1399.77z"/>
		<path fill="#F0AAAF" d="M1069.83,1239.86c-0.47,8.59-0.6399,17.2001-1.23,25.79c-1.2999,8.39-4.01,17.51-11.2,22.74
			c-5.85,4.37-14.89,3.91-19.85-1.6c-3.0801-3.13-4.0801-8.4-1.4601-12.1001c3.66-5.3199,9.9301-7.87,15.74-10.1299
			c1.78-0.54,2.9701-2.25,2.9701-4.0701c-6.27-2.11-12.55-4.83-17.36-9.49c-2.41-2.39-4.38-6.11-2.7001-9.4399
			c2.47-4.79,7.87-7.54,13.13-7.8101C1055.63,1233.3101,1063.0701,1236.34,1069.83,1239.86z"/>
		<path fill="#FFFFFF" d="M989.32,446.64c0.29,18.49-0.76,36.99-2.31,55.41c-28.11,17.74-55.52,36.74-80.77,58.41
			c-23.38,19.75-44.53,42.43-60.77,68.45c-19.44,31.15-32.06,65.8-46.69,99.31c-2.31,5.69-5.49,11.1201-6.47,17.26
			c-1.52,8.66,0.37,17.53,3.6,25.6c3.8,9.55,9.3,18.27,14.23,27.24c1.97,3.83,4.08,8.35,2.45,12.69c-1.38,2.89-4.32,4.77-7.26,5.82
			c-4.02,1.22-8.11-0.83-11.02-3.51c-5.81-5.31-9.38-12.46-13.43-19.07c-1.33-2.54-4.43-0.24-5.17,1.63
			c-1.38,5.81-0.6,12.57-4.42,17.57c-4.11-1.22-5.52-5.84-6.73-9.48c-1.18-3.19-1.02-6.84-2.67-9.83c-2.38-0.85-4.79,1.7-5,3.97
			c-0.93,5.91-2.06,12.36-6.43,16.79c-2.08,2.17-6.3,3.58-8.33,0.61c-3.71-5.4-2.91-12.26-3.78-18.42
			c-2.46-0.78-5.04,0.99-5.44,3.47c-1.96,6.8-5.8,13.56-12.16,17.1c-5.19,2.96-11.69,2.66-17.06,0.34
			c28.52-45.59,52.37-93.89,79.5-140.29c15.12-25.79,31.23-51.07,49.66-74.65C878.36,545.02,937.89,500.31,987.11,445.69
			C987.84,446.01,988.58,446.32,989.32,446.64z"/>
		<path fill="#F1AAB0" d="M851.16,328.2c4.98,5.24,7.59,12.63,6.87,19.84c-0.2,4.68-2.42,9.45-6.52,11.92
			c-4.85,3.02-11,2.47-16.21,0.76c-6.23-2.16-11.89-5.79-16.84-10.09c10.11-7.4,13.9-21.71,9.05-33.22
			C836.28,318.23,845.06,321.68,851.16,328.2z"/>
		<path fill="#F1AAB0" d="M824.71,289.41c1.5,7.18,0.78,14.65-0.76,21.77c-5.73-7.07-14.89-11.25-24.02-10.08
			c0.55-6.56,1.41-13.47,5.23-19.02c2.5099-3.77,7.59-6.02,11.96-4.34C821.51,279.94,823.62,284.86,824.71,289.41z"/>
		<path fill="#FFFFFF" d="M824.49,321.41c3.81,11.67-3.08,25.62-14.98,29.11c-11.01,3.73-23.66-3.16-27.34-13.99
			c-4.7599-11.82,2.04-26.77,14.36-30.44C808.06,302.01,821.37,309.83,824.49,321.41z"/>
		<path fill="#F1AAB0" d="M818.15,371.44c0.46,3.09-1.2,6.54-4.33,7.46c-4.6,2.01-9.7-0.39-12.94-3.75
			c-5.44-5.65-8.71-12.99-11.21-20.33c-0.23-1.11-1.3-2.26-2.5-1.62c-2.5,0.84-3.29,3.56-4.42,5.66c-2.52,4.84-6.8,9.27-12.39,10.16
			c-6.34,1.19-12.6-2.04-16.91-6.49c-4.21-4.05-6.6-10.47-4.64-16.16c1-3.28,3.55-5.86,6.44-7.58c5.34-3.29,11.58-4.54,17.65-5.73
			c2.04-0.14,3.7-2.09,3.7-4.09h0.04c0.13,5.26,1.7,10.49,4.67,14.85c6.08,9.46,18.57,14.14,29.34,10.69
			C814.19,359.56,817.41,365.21,818.15,371.44z"/>
		<path fill="#FFF5C8" d="M795.9,379.3c0.57,0.73,1.56,1.23,1.85,2.17c-10.49,29.57-20.99,59.14-32.19,88.44
			c-12.91,33.64-24.04,68.02-39.55,100.59c-7.59,15.86-15.91,31.57-27.15,45.19c-4.37,5.13-8.89,10.29-14.36,14.26
			c-18.2-21.59-31.31-48.31-33.17-76.78c-1.57-21.34,3.08-42.71,10.95-62.47c11.43-28.45,28.49-54.3,47.68-78.07
			c12.5-15.36,25.9-30,40.02-43.88c6.1899,5.86,15.73,8.43,23.8,5.16c5.19-2.03,9.08-6.28,12.18-10.77
			C788.37,368.99,791.41,374.74,795.9,379.3z"/>
		<path fill="#F1AAB0" d="M792.23,303.18c-4.94,2.65-9.38,6.46-12.07,11.43c-2.48,4.35-3.65,9.37-3.52,14.36h-0.04
			c0-0.35-0.05-0.7-0.16-1.04c-1.39-1.25-3.19-1.88-4.77-2.86c-7.21-4.11-13.66-10.25-16.5699-18.18
			c-2.02-5.46-1.6801-12.27,2.41-16.7c3.24-3.5,8.5-4.08,12.9-2.89C779.42,289.53,786.64,296.05,792.23,303.18z"/>
	</g>
</g>
</svg>
